<?xml version="1.0" encoding="UTF-8"?>
<svg width="34px" height="34px" viewBox="0 0 34 34" version="1.1" xmlns="http://www.w3.org/2000/svg" xmlns:xlink="http://www.w3.org/1999/xlink">
    <!-- Generator: Sketch 54.1 (76490) - https://sketchapp.com -->
    <title>icn favorite</title>
    <desc>Created with Sketch.</desc>
    <defs>
        <rect id="path-1" x="0" y="0" width="1280" height="64"></rect>
        <filter x="-1.2%" y="-21.9%" width="102.5%" height="150.0%" filterUnits="objectBoundingBox" id="filter-2">
            <feOffset dx="0" dy="2" in="SourceAlpha" result="shadowOffsetOuter1"></feOffset>
            <feGaussianBlur stdDeviation="5" in="shadowOffsetOuter1" result="shadowBlurOuter1"></feGaussianBlur>
            <feColorMatrix values="0 0 0 0 0   0 0 0 0 0   0 0 0 0 0  0 0 0 0.2 0" type="matrix" in="shadowBlurOuter1"></feColorMatrix>
        </filter>
    </defs>
    <g id="Homepage" stroke="none" stroke-width="1" fill="none" fill-rule="evenodd">
        <g id="01_homepage" transform="translate(-1091.000000, -15.000000)">
            <g id="Header">
                <g id="bg">
                    <use fill="black" fill-opacity="1" filter="url(#filter-2)" xlink:href="#path-1"></use>
                    <use fill="#FFFFFF" fill-rule="evenodd" xlink:href="#path-1"></use>
                </g>
                <g id="icn-favorite" transform="translate(1092.000000, 16.000000)">
                    <circle id="Oval" stroke="#5B5B5B" fill="#FFFFFF" cx="16" cy="16" r="16"></circle>
                    <path d="M10.3908451,24 C12.4190141,23.1212121 13.8767606,22.3333333 16,21.030303 C18.1232394,22.3333333 19.5809859,23.1212121 21.6091549,24 C21.3239437,21.6060606 21.0704225,20.3636364 20.3732394,18 C22.4964789,16.6363636 23.6690141,15.7575758 25,14.5151515 C22.6549296,13.6969697 21.1021127,13.3030303 18.915493,12.9393939 C17.806338,10.8484848 16.9823944,9.45454545 16,8 C15.0176056,9.45454545 14.193662,10.8484848 13.084507,12.9393939 C10.8978873,13.3030303 9.34507042,13.6969697 7,14.5151515 C8.33098592,15.7575758 9.50352113,16.6363636 11.6267606,18 C10.9295775,20.3636364 10.6760563,21.6060606 10.3908451,24 L10.3908451,24 Z M21.7320872,25 C19.5825545,24.1118421 17.7445483,23.2236842 16,22.1578947 C14.2554517,23.2236842 12.4174455,24.1118421 10.2679128,25 L9.33333333,24.3486842 C9.52024922,22.0690789 9.8317757,20.4111842 10.423676,18.3092105 C8.58566978,17.0361842 7.27725857,16 6,14.8157895 L6.24922118,13.75 C8.02492212,13.0394737 9.95638629,12.5065789 12.3551402,12.0328947 C13.4143302,10.0789474 14.1308411,8.89473684 15.470405,7 L16.529595,7 C17.8691589,8.89473684 18.5856698,10.0789474 19.6448598,12.0328947 C22.0436137,12.5065789 23.9750779,13.0394737 25.7507788,13.75 L26,14.8157895 C24.7227414,16 23.4143302,17.0361842 21.576324,18.3092105 C22.1682243,20.4111842 22.4797508,22.0690789 22.6666667,24.3486842 L21.7320872,25 Z" id="Mask" fill="#4D4D4D"></path>
                </g>
            </g>
        </g>
    </g>
</svg>