<?xml version="1.0" encoding="UTF-8"?>
<svg width="34px" height="34px" viewBox="0 0 34 34" version="1.1" xmlns="http://www.w3.org/2000/svg" xmlns:xlink="http://www.w3.org/1999/xlink">
    <!-- Generator: Sketch 54.1 (76490) - https://sketchapp.com -->
    <title>Oval</title>
    <desc>Created with Sketch.</desc>
    <defs>
        <rect id="path-1" x="0" y="0" width="1280" height="64"></rect>
        <filter x="-1.2%" y="-21.9%" width="102.5%" height="150.0%" filterUnits="objectBoundingBox" id="filter-2">
            <feOffset dx="0" dy="2" in="SourceAlpha" result="shadowOffsetOuter1"></feOffset>
            <feGaussianBlur stdDeviation="5" in="shadowOffsetOuter1" result="shadowBlurOuter1"></feGaussianBlur>
            <feColorMatrix values="0 0 0 0 0   0 0 0 0 0   0 0 0 0 0  0 0 0 0.2 0" type="matrix" in="shadowBlurOuter1"></feColorMatrix>
        </filter>
    </defs>
    <g id="Homepage" stroke="none" stroke-width="1" fill="none" fill-rule="evenodd">
        <g id="01_homepage" transform="translate(-1040.000000, -15.000000)">
            <g id="Header">
                <g id="bg">
                    <use fill="black" fill-opacity="1" filter="url(#filter-2)" xlink:href="#path-1"></use>
                    <use fill="#FFFFFF" fill-rule="evenodd" xlink:href="#path-1"></use>
                </g>
                <g id="icn-notif-on" transform="translate(1040.000000, 15.000000)">
                    <circle id="Oval" stroke="#4A4A4A" cx="17" cy="17" r="16"></circle>
                    <path d="M24.4326628,24.710562 L15.8895305,24.710562 L10.5661601,24.710562 C9.78762297,24.710562 9.15336624,24.0763053 9.15336624,23.2983453 C9.15336624,22.6398494 9.61968056,22.059265 10.2608627,21.916716 C10.3456996,21.897671 10.4253424,21.8601581 10.4934428,21.8059086 C11.3781703,21.1064371 11.9096994,17.2316422 12.0961097,15.6035819 C12.6495694,11.1412771 14.7375956,9.78850384 16.1723201,9.39259837 C16.1792456,9.390867 16.1867482,9.39375261 16.1936736,9.39202124 C16.3552677,9.34700575 16.5041651,9.31584118 16.6409429,9.29217919 C16.6669134,9.28813934 16.6946153,9.28294525 16.7211629,9.27948252 C16.7604071,9.2737113 16.7973429,9.26794008 16.8337016,9.26390023 C17.0114551,9.24370097 17.1672779,9.23619839 17.2878963,9.23619839 C17.3767731,9.23619839 17.4315996,9.24023824 17.4402565,9.24081536 C17.4771923,9.24485522 17.5170137,9.24427809 17.5551037,9.24139249 C17.5666461,9.24023824 17.6208956,9.23619839 17.7103494,9.23619839 C17.8292365,9.23619839 17.983328,9.24370097 18.158773,9.26390023 C18.1951316,9.26794008 18.2320674,9.27313418 18.2707346,9.27890539 C18.2955508,9.28236812 18.3226755,9.28756222 18.348646,9.29102495 C18.4871552,9.31468694 18.6389382,9.34642863 18.803995,9.39202124 C18.8178459,9.3960611 18.832274,9.39490685 18.8455478,9.39779246 C20.2802723,9.80062339 22.3509849,11.1620534 22.8992505,15.5960793 C23.0775811,17.2281794 23.5877566,21.0995117 24.4753698,21.8001374 C24.5457786,21.8566953 24.628307,21.8942082 24.7166066,21.912099 C25.3699084,22.0465684 25.8437253,22.6300384 25.8437253,23.2989224 C25.8448795,24.0763053 25.211777,24.710562 24.4326628,24.710562 L24.4326628,24.710562 Z M18.6978046,25.8659596 C18.7099242,25.9363685 18.7168496,26.0085087 18.7168496,26.0818032 C18.7168496,26.7524185 18.1703154,27.2983757 17.4991229,27.2983757 C16.8279304,27.2983757 16.2825504,26.7524185 16.2825504,26.0818032 C16.2825504,26.0079316 16.2888987,25.9357914 16.3010183,25.8648054 L18.6978046,25.8659596 Z M16.6172809,8.03463105 C16.6172809,7.54927171 17.0137635,7.15394336 17.4991229,7.15394336 C17.9850593,7.15394336 18.3815419,7.54927171 18.3815419,8.03463105 L18.3815419,8.12812476 C18.3238298,8.12004506 18.2770829,8.11773657 18.2245648,8.11254248 C18.1928231,8.10907975 18.1645442,8.10619414 18.1339567,8.10330853 C18.0693191,8.09753731 18.0064128,8.0917661 17.9487007,8.08888049 C17.8615553,8.08368639 17.7871066,8.08195503 17.7276631,8.08137791 C17.7236232,8.08137791 17.7166978,8.08080078 17.7126579,8.08080078 C17.6913044,8.08080078 17.6774535,8.08137791 17.6584085,8.08195503 C17.627821,8.08195503 17.5983878,8.08253215 17.5741487,8.08368639 C17.556835,8.08426351 17.5452926,8.08484064 17.5314417,8.08541776 C17.5210535,8.08599488 17.5077797,8.08599488 17.4991229,8.086572 C17.4650727,8.08426351 17.4119775,8.08253215 17.3508026,8.08137791 C17.1591982,8.07272108 16.9231554,8.08541776 16.6172809,8.12754764 L16.6172809,8.03463105 Z M25.1442538,20.8282645 C24.7743188,20.2551827 24.2878052,17.671986 24.0459912,15.46161 C23.4636755,10.752297 21.222712,9.04170838 19.5363624,8.42476531 L19.5363624,8.03463105 C19.5363624,6.9127065 18.6227788,5.9997 17.4997,5.9997 C16.3771983,5.9997 15.4636147,6.9127065 15.4636147,8.03463105 L15.4636147,8.42476531 C13.7761109,9.04228551 11.5345703,10.7540284 10.9505232,15.4668041 C10.6960125,17.6852598 10.1927624,20.2875015 9.82802149,20.8374984 C8.75803789,21.1612637 7.9997,22.1666097 7.9997,23.2983453 C7.9997,24.7134476 9.15105775,25.8648054 10.5667372,25.8648054 L15.1537004,25.8648054 C15.147352,25.9375227 15.1294613,26.0073545 15.1294613,26.0818032 C15.1294613,27.390138 16.1930965,28.452619 17.5002771,28.452619 C18.8080349,28.452619 19.8722472,27.3895609 19.8722472,26.0818032 C19.8722472,26.0079316 19.8537793,25.9375227 19.847431,25.8648054 L24.4332399,25.8648054 C25.8483422,25.8648054 26.9997,24.7134476 26.9997,23.2983453 C26.9991229,22.1504503 26.2303968,21.1422187 25.1442538,20.8282645 L25.1442538,20.8282645 Z" id="Fill-1" fill="#4A4A4A"></path>
                </g>
            </g>
        </g>
    </g>
</svg>