<?xml version="1.0" encoding="UTF-8"?>
<svg width="34px" height="34px" viewBox="0 0 34 34" version="1.1" xmlns="http://www.w3.org/2000/svg" xmlns:xlink="http://www.w3.org/1999/xlink">
    <!-- Generator: Sketch 54.1 (76490) - https://sketchapp.com -->
    <title>icn compte</title>
    <desc>Created with Sketch.</desc>
    <defs>
        <rect id="path-1" x="0" y="0" width="1280" height="64"></rect>
        <filter x="-1.2%" y="-21.9%" width="102.5%" height="150.0%" filterUnits="objectBoundingBox" id="filter-2">
            <feOffset dx="0" dy="2" in="SourceAlpha" result="shadowOffsetOuter1"></feOffset>
            <feGaussianBlur stdDeviation="5" in="shadowOffsetOuter1" result="shadowBlurOuter1"></feGaussianBlur>
            <feColorMatrix values="0 0 0 0 0   0 0 0 0 0   0 0 0 0 0  0 0 0 0.2 0" type="matrix" in="shadowBlurOuter1"></feColorMatrix>
        </filter>
    </defs>
    <g id="Homepage" stroke="none" stroke-width="1" fill="none" fill-rule="evenodd">
        <g id="01_homepage" transform="translate(-1139.000000, -15.000000)">
            <g id="Header">
                <g id="bg">
                    <use fill="black" fill-opacity="1" filter="url(#filter-2)" xlink:href="#path-1"></use>
                    <use fill="#FFFFFF" fill-rule="evenodd" xlink:href="#path-1"></use>
                </g>
                <g id="icn-compte" transform="translate(1140.000000, 16.000000)" stroke="#4A4A4A" stroke-linecap="round" stroke-linejoin="round">
                    <path d="M16,0 C7.17634783,0 0,7.17634783 0,16 C0,24.8222609 7.17634783,32 16,32 C24.8222609,32 32,24.8222609 32,16 C32,7.17634783 24.8222609,0 16,0 Z" id="Stroke-1"></path>
                    <path d="M26.2255304,27.9137391 C22.8077913,26.4897391 19.4853565,24.8507826 19.1646609,23.821913 L19.1646609,22.4403478 C20.0780522,21.5053913 20.7987478,20.2017391 21.2258783,18.6754783 C21.6571826,16.5405217 21.6571826,12.3353043 21.6571826,12.3353043 C21.6571826,9.14226087 19.8784,6.95652174 15.8137043,6.95652174 C11.8533565,6.95652174 9.96813913,9.14226087 9.96813913,12.3353043 C9.96813913,12.3353043 9.96813913,16.5676522 10.3994435,18.6747826 C10.8258783,20.2017391 11.5472696,21.5053913 12.4613565,22.4403478 L12.4613565,23.821913 C12.1385739,24.8591304 9.02692174,26.3937391 5.56535652,27.8323478" id="Stroke-3"></path>
                </g>
            </g>
        </g>
    </g>
</svg>