<?xml version="1.0" encoding="UTF-8"?>
<svg width="484px" height="595px" viewBox="0 0 484 595" version="1.1" xmlns="http://www.w3.org/2000/svg" xmlns:xlink="http://www.w3.org/1999/xlink">
    <!-- Generator: Sketch 54.1 (76490) - https://sketchapp.com -->
    <title>illus</title>
    <desc>Created with Sketch.</desc>
    <defs>
        <rect id="path-1" x="141" y="232" width="145" height="154"></rect>
        <mask id="mask-2" maskContentUnits="userSpaceOnUse" maskUnits="objectBoundingBox" x="-6" y="-6" width="157" height="166">
            <rect x="135" y="226" width="157" height="166" fill="white"></rect>
            <use xlink:href="#path-1" fill="black"></use>
        </mask>
    </defs>
    <g id="Login" stroke="none" stroke-width="1" fill="none" fill-rule="evenodd">
        <g id="01b_login_splash" transform="translate(-61.000000, -170.000000)">
            <g id="illus" transform="translate(61.000000, 170.000000)">
                <path d="M119.097755,29 C120.371961,12.7717682 133.944477,3.04120019e-15 150.5,0 L367.5,0 C384.055523,-3.04120019e-15 397.628039,12.7717682 398.902245,29 L399,29 L399,63 L119,63 L119,29 L119.097755,29 Z" id="Rectangle-Copy-4" fill="#535355"></path>
                <path d="M119.097755,561 C120.371961,544.771768 133.944477,532 150.5,532 L367.5,532 C384.055523,532 397.628039,544.771768 398.902245,561 L399,561 L399,595 L119,595 L119,561 L119.097755,561 Z" id="Rectangle-Copy-5" fill="#59595B" transform="translate(259.000000, 563.500000) scale(1, -1) translate(-259.000000, -563.500000) "></path>
                <rect id="Rectangle-Copy" fill="#FFFFFF" x="119" y="63" width="280" height="477"></rect>
                <rect id="Rectangle" fill="#6F16DF" x="58" y="83" width="176" height="106"></rect>
                <rect id="Rectangle" fill="#EFEFEF" x="136" y="476" width="247" height="16"></rect>
                <rect id="Rectangle-Copy-11" fill="#EFEFEF" x="136" y="504" width="247" height="16"></rect>
                <rect id="Rectangle-Copy-6" fill="#EFEFEF" x="136" y="420" width="157" height="16"></rect>
                <rect id="Rectangle-Copy-9" fill="#EFEFEF" x="136" y="448" width="157" height="16"></rect>
                <rect id="Rectangle-Copy-7" stroke="#979797" fill="#FFFFFF" x="77.5" y="106.5" width="67" height="11"></rect>
                <rect id="Rectangle-Copy-21" fill="#9F9F9F" x="0" y="226" width="96" height="12"></rect>
                <rect id="Rectangle-Copy-23" fill="#9F9F9F" x="0" y="274" width="96" height="12"></rect>
                <rect id="Rectangle-Copy-25" fill="#9F9F9F" x="0" y="322" width="96" height="12"></rect>
                <rect id="Rectangle-Copy-22" fill="#9F9F9F" x="0" y="250" width="96" height="12"></rect>
                <rect id="Rectangle-Copy-24" fill="#9F9F9F" x="0" y="298" width="96" height="12"></rect>
                <rect id="Rectangle-Copy-26" fill="#9F9F9F" x="0" y="346" width="96" height="12"></rect>
                <rect id="Rectangle-Copy-27" fill="#9F9F9F" x="0" y="370" width="96" height="12"></rect>
                <rect id="Rectangle-Copy-10" fill="#EFEFEF" x="262" y="83" width="117" height="106"></rect>
                <rect id="Rectangle-Copy-7" stroke="#979797" fill="#FFFFFF" x="77.5" y="130.5" width="138" height="11"></rect>
                <rect id="Rectangle-Copy-8" stroke="#979797" fill="#FFFFFF" x="77.5" y="154.5" width="138" height="11"></rect>
                <rect id="Rectangle-Copy-14" fill="#FFBA76" x="319" y="302" width="165" height="190"></rect>
                <use id="Rectangle-Copy-15" stroke="#FF8206" mask="url(#mask-2)" stroke-width="12" fill-opacity="0.2" fill="#FFBA76" stroke-linejoin="round" stroke-dasharray="24,32" xlink:href="#path-1"></use>
                <rect id="Rectangle" fill="#000000" x="224" y="31" width="71" height="8" rx="4"></rect>
                <rect id="Rectangle-Copy-20" fill="#9B9B9B" x="303" y="31" width="8" height="8" rx="4"></rect>
                <rect id="Rectangle-Copy-17" fill="#000000" x="224" y="564" width="71" height="8" rx="4"></rect>
                <path d="M400.819805,396.819805 L400.819805,418.819805 L396.819805,418.819805 L396.819805,396.819805 L382.819805,396.819805 L398.819805,360.819805 L414.819805,396.819805 L400.819805,396.819805 Z" id="Triangle-2" fill="#FFFFFF" transform="translate(398.819805, 389.819805) rotate(-45.000000) translate(-398.819805, -389.819805) "></path>
            </g>
        </g>
    </g>
</svg>