<?xml version="1.0" encoding="UTF-8"?>
<svg width="280px" height="595px" viewBox="0 0 280 595" version="1.1" xmlns="http://www.w3.org/2000/svg" xmlns:xlink="http://www.w3.org/1999/xlink">
    <!-- Generator: Sketch 54.1 (76490) - https://sketchapp.com -->
    <title>tel</title>
    <desc>Created with Sketch.</desc>
    <g id="Login" stroke="none" stroke-width="1" fill="none" fill-rule="evenodd">
        <g id="01a_login_splash" transform="translate(-180.000000, -170.000000)">
            <g id="tel" transform="translate(180.000000, 170.000000)">
                <rect id="Rectangle" fill="#6F16DF" x="0" y="63" width="280" height="63"></rect>
                <rect id="Rectangle" fill="#5212C5" x="0" y="63" width="280" height="16"></rect>
                <rect id="Rectangle-Copy-6" fill="#FFFFFF" x="13" y="95" width="206" height="16"></rect>
                <path d="M0.0977552192,29 C1.37196084,12.7717682 14.9444773,3.04120019e-15 31.5,0 L248.5,0 C265.055523,-3.04120019e-15 278.628039,12.7717682 279.902245,29 L280,29 L280,63 L0,63 L0,29 L0.0977552192,29 Z" id="Rectangle-Copy-4" fill="#535355"></path>
                <path d="M0.0977552192,561 C1.37196084,544.771768 14.9444773,532 31.5,532 L248.5,532 C265.055523,532 278.628039,544.771768 279.902245,561 L280,561 L280,595 L0,595 L0,561 L0.0977552192,561 Z" id="Rectangle-Copy-5" fill="#59595B" transform="translate(140.000000, 563.500000) scale(1, -1) translate(-140.000000, -563.500000) "></path>
                <rect id="Rectangle-Copy" fill="#FFFFFF" x="0" y="126" width="280" height="414"></rect>
                <rect id="Rectangle-Copy-7" fill="#9F9F9F" x="13" y="142" width="96" height="12"></rect>
                <rect id="Rectangle-Copy-9" fill="#9F9F9F" x="13" y="218" width="76" height="12"></rect>
                <rect id="Rectangle-Copy-12" fill="#9F9F9F" x="13" y="294" width="56" height="12"></rect>
                <rect id="Rectangle-Copy-15" fill="#9F9F9F" x="13" y="370" width="116" height="12"></rect>
                <rect id="Rectangle-Copy-18" fill="#9F9F9F" x="13" y="446" width="76" height="12"></rect>
                <rect id="Rectangle-Copy-8" fill="#EFEFEF" x="13" y="162" width="256" height="40"></rect>
                <rect id="Rectangle-Copy-10" fill="#EFEFEF" x="13" y="238" width="256" height="40"></rect>
                <rect id="Rectangle-Copy-13" fill="#EFEFEF" x="13" y="314" width="256" height="40"></rect>
                <rect id="Rectangle-Copy-16" fill="#EFEFEF" x="13" y="390" width="256" height="40"></rect>
                <rect id="Rectangle-Copy-19" fill="#EFEFEF" x="13" y="466" width="256" height="40"></rect>
                <rect id="Rectangle-Copy-7" fill="#B9B9B9" x="23" y="176" width="110" height="12"></rect>
                <rect id="Rectangle-Copy-11" fill="#B9B9B9" x="23" y="252" width="161" height="12"></rect>
                <rect id="Rectangle-Copy-14" fill="#B9B9B9" x="23" y="328" width="161" height="12"></rect>
                <g id="icn" transform="translate(231.000000, 95.000000)" stroke="#FFFFFF" stroke-linecap="round" stroke-linejoin="round">
                    <path d="M6.5,0 C10.0899582,0 13,2.91004184 13,6.5 C13,10.0899582 10.0899582,13 6.5,13 C2.9103776,13 0,10.0899582 0,6.5 C0,2.91004184 2.9103776,0 6.5,0 Z" id="Stroke-1"></path>
                    <path d="M11,11 L15,15" id="Stroke-3"></path>
                </g>
                <g id="Icon-check" transform="translate(237.000000, 170.000000)">
                    <circle id="Oval" stroke="#7ED321" stroke-width="2" cx="12" cy="12" r="12"></circle>
                    <path d="M9.64563989,18.2390182 L9.40031988,18.4843383 L4.34615385,13.4301722 L6.03056039,11.7457657 L9.49250177,15.2077071 L18.1617473,6.53846154 L19.8461538,8.22286808 L9.73782178,18.3312001 L9.64563989,18.2390182 Z" id="Check-Icon" fill="#7ED321"></path>
                </g>
                <g id="Icon-check-Copy" transform="translate(237.000000, 246.000000)">
                    <circle id="Oval" stroke="#7ED321" stroke-width="2" cx="12" cy="12" r="12"></circle>
                    <path d="M9.64563989,18.2390182 L9.40031988,18.4843383 L4.34615385,13.4301722 L6.03056039,11.7457657 L9.49250177,15.2077071 L18.1617473,6.53846154 L19.8461538,8.22286808 L9.73782178,18.3312001 L9.64563989,18.2390182 Z" id="Check-Icon" fill="#7ED321"></path>
                </g>
                <rect id="Rectangle" fill="#000000" x="105" y="31" width="71" height="8" rx="4"></rect>
                <rect id="Rectangle-Copy-20" fill="#9B9B9B" x="184" y="31" width="8" height="8" rx="4"></rect>
                <rect id="Rectangle-Copy-17" fill="#000000" x="105" y="564" width="71" height="8" rx="4"></rect>
            </g>
        </g>
    </g>
</svg>