<?xml version="1.0" encoding="UTF-8"?>
<svg width="462px" height="521px" viewBox="0 0 462 521" version="1.1" xmlns="http://www.w3.org/2000/svg" xmlns:xlink="http://www.w3.org/1999/xlink">
    <!-- Generator: Sketch 54.1 (76490) - https://sketchapp.com -->
    <title>illus</title>
    <desc>Created with Sketch.</desc>
    <defs>
        <rect id="path-1" x="114" y="393" width="103" height="25"></rect>
        <mask id="mask-2" maskContentUnits="userSpaceOnUse" maskUnits="objectBoundingBox" x="-3" y="-3" width="109" height="31">
            <rect x="111" y="390" width="109" height="31" fill="white"></rect>
            <use xlink:href="#path-1" fill="black"></use>
        </mask>
    </defs>
    <g id="Login" stroke="none" stroke-width="1" fill="none" fill-rule="evenodd">
        <g id="01c_login_splash" transform="translate(-68.000000, -202.000000)">
            <g id="illus" transform="translate(68.000000, 202.000000)">
                <g id="mac" transform="translate(19.000000, 53.000000)">
                    <path d="M17.0387281,8.63636364 C17.475062,3.79438635 21.5444178,9.10325683e-16 26.5,0 L405.5,0 C410.455582,-9.10325683e-16 414.524938,3.79438635 414.961272,8.63636364 L415,8.63636364 L415,19 L17,19 L17,8.63636364 L17.0387281,8.63636364 Z" id="Rectangle-Copy-4" fill="#535355"></path>
                    <rect id="Rectangle-Copy" fill="#FFFFFF" x="17" y="12" width="398" height="264"></rect>
                    <rect id="Rectangle-Copy-20" fill="#9B9B9B" x="214" y="4" width="5" height="5" rx="2.5"></rect>
                    <path d="M402.13442,26.1359223 L29.101833,26.1359223 L29.101833,285 L16.7556008,285 L16.7556008,26.1359223 L7.06796117,26.1359223 C3.164434,26.1359223 4.78044205e-16,22.9714883 0,19.0679612 C-4.78044205e-16,15.164434 3.164434,12 7.06796117,12 L425.932039,12 C429.835566,12 433,15.164434 433,19.0679612 C433,22.9714883 429.835566,26.1359223 425.932039,26.1359223 L414.480652,26.1359223 L414.480652,285 L402.13442,285 L402.13442,26.1359223 Z" id="Rectangle-Copy-6" fill="#59595B" transform="translate(216.500000, 148.500000) scale(1, -1) translate(-216.500000, -148.500000) "></path>
                </g>
                <g id="content-mac" transform="translate(48.000000, 65.000000)">
                    <rect id="Rectangle" fill="#6F16DF" x="0" y="0" width="182" height="21"></rect>
                    <rect id="Rectangle" fill="#5212C5" x="0" y="0" width="182" height="5"></rect>
                    <rect id="Rectangle-Copy-6" fill="#FFFFFF" x="27" y="9" width="124" height="8"></rect>
                    <g id="icn" transform="translate(155.000000, 11.000000)" stroke="#FFFFFF" stroke-linecap="round" stroke-linejoin="round">
                        <path d="M2.16666667,0 C3.36331939,0 4.33333333,0.970013947 4.33333333,2.16666667 C4.33333333,3.36331939 3.36331939,4.33333333 2.16666667,4.33333333 C0.970125867,4.33333333 0,3.36331939 0,2.16666667 C0,0.970013947 0.970125867,0 2.16666667,0 Z" id="Stroke-1"></path>
                        <path d="M3.66666667,3.66666667 L5,5" id="Stroke-3"></path>
                    </g>
                    <rect id="Rectangle-Copy-29" fill-opacity="0.11" fill="#66DBF6" x="0" y="21" width="373" height="95"></rect>
                    <rect id="Rectangle-Copy-29" stroke="#6F16DF" stroke-width="2" fill="#FFFFFF" x="85" y="80" width="205" height="148" rx="5"></rect>
                    <rect id="Rectangle-Copy-29" fill="#EFEFEF" x="126" y="193" width="110" height="14"></rect>
                    <rect id="Rectangle-Copy-7" fill="#9F9F9F" x="126" y="99" width="52" height="4"></rect>
                    <rect id="Rectangle-Copy-30" fill="#9F9F9F" x="116" y="48" width="142" height="4"></rect>
                    <rect id="Rectangle-Copy-31" fill="#9F9F9F" x="142" y="56" width="82" height="4"></rect>
                    <rect id="Rectangle-Copy-22" fill="#9F9F9F" x="126" y="128" width="42" height="4"></rect>
                    <rect id="Rectangle-Copy-25" fill="#9F9F9F" x="126" y="157" width="62" height="4"></rect>
                    <rect id="Rectangle-Copy-28" fill="#9F9F9F" x="126" y="186" width="32" height="4"></rect>
                    <rect id="Rectangle-Copy-8" fill="#EFEFEF" x="126" y="106" width="110" height="14"></rect>
                    <rect id="Rectangle-Copy-23" fill="#EFEFEF" x="126" y="135" width="110" height="14"></rect>
                    <rect id="Rectangle-Copy-26" fill="#EFEFEF" x="126" y="164" width="110" height="14"></rect>
                    <rect id="Rectangle-Copy-7" fill="#B9B9B9" x="130" y="111" width="86" height="4"></rect>
                    <rect id="Rectangle-Copy-24" fill="#B9B9B9" x="130" y="140" width="86" height="4"></rect>
                    <rect id="Rectangle-Copy-27" fill="#B9B9B9" x="130" y="169" width="86" height="4"></rect>
                    <g id="Icon-check" transform="translate(242.000000, 109.000000)">
                        <circle id="Oval" stroke="#7ED321" stroke-width="2" cx="4" cy="4" r="4"></circle>
                        <path d="M3.2152133,6.07967275 L3.13343996,6.16144609 L1.44871795,4.47672408 L2.0101868,3.91525523 L3.16416726,5.06923569 L6.05391577,2.17948718 L6.61538462,2.74095603 L3.24594059,6.11040005 L3.2152133,6.07967275 Z" id="Check-Icon" fill="#7ED321"></path>
                    </g>
                    <g id="Icon-check-Copy-2" transform="translate(242.000000, 138.000000)">
                        <circle id="Oval" stroke="#7ED321" stroke-width="2" cx="4" cy="4" r="4"></circle>
                        <path d="M3.2152133,6.07967275 L3.13343996,6.16144609 L1.44871795,4.47672408 L2.0101868,3.91525523 L3.16416726,5.06923569 L6.05391577,2.17948718 L6.61538462,2.74095603 L3.24594059,6.11040005 L3.2152133,6.07967275 Z" id="Check-Icon" fill="#7ED321"></path>
                    </g>
                    <rect id="Rectangle-Copy-14" fill="#FFBA76" x="213" y="221" width="62" height="17" rx="8.5"></rect>
                    <rect id="Rectangle" fill="#6F16DF" x="0" y="0" width="373" height="26"></rect>
                    <rect id="Rectangle" fill="#5212C5" x="0" y="0" width="373" height="5"></rect>
                    <rect id="Rectangle-Copy-6" fill="#FFFFFF" x="112" y="9" width="150" height="12"></rect>
                    <g id="icn" transform="translate(267.000000, 11.000000)" stroke="#FFFFFF" stroke-linecap="round" stroke-linejoin="round">
                        <path d="M3.5,1.13686838e-13 C5.43305439,1.13686838e-13 7,1.56694561 7,3.5 C7,5.43305439 5.43305439,7 3.5,7 C1.5671264,7 0,5.43305439 0,3.5 C0,1.56694561 1.5671264,1.13686838e-13 3.5,1.13686838e-13 Z" id="Stroke-1"></path>
                        <path d="M6,6 L8,8" id="Stroke-3"></path>
                    </g>
                </g>
                <g id="ipad" transform="translate(178.000000, 373.500000) rotate(90.000000) translate(-178.000000, -373.500000) translate(94.500000, 260.500000)">
                    <path d="M0.00981724276,12 C0.272269145,5.32823338 5.76389678,-2.31531159e-15 12.5,-3.55271368e-15 L154.5,0 C161.236103,-1.23740209e-15 166.727731,5.32823338 166.990183,12 L167,25 L5.68434189e-14,25 L5.68434189e-14,12 Z" id="Rectangle-Copy-4" fill="#535355"></path>
                    <path d="M0.089074983,212 C0.830108367,205.80366 6.10407673,201 12.5,201 L154.5,201 C160.895923,201 166.169892,205.80366 166.910925,212 L167,212 L167,225 L159.407172,225 C157.900603,225.643699 156.241911,226 154.5,226 L12.5,226 C10.7580891,226 9.09939694,225.643699 7.59282786,225 L5.68434189e-14,225 L5.68434189e-14,212 L0.089074983,212 Z" id="Rectangle-Copy-5" fill="#59595B" transform="translate(83.500000, 213.500000) scale(1, -1) translate(-83.500000, -213.500000) "></path>
                    <rect id="Rectangle-Copy" fill="#FFFFFF" x="0" y="24" width="167" height="182"></rect>
                    <rect id="Rectangle" fill="#000000" x="66.5" y="11.5" width="28" height="3" rx="1.5"></rect>
                    <rect id="Rectangle-Copy-20" fill="#9B9B9B" x="97" y="11" width="3" height="3" rx="1.5"></rect>
                    <rect id="Rectangle-Copy-17" fill="#000000" x="66.5" y="214.5" width="28" height="3" rx="1.5"></rect>
                    <rect id="Rectangle" fill="#535355" x="0" y="24" width="5" height="184"></rect>
                    <rect id="Rectangle-Copy-21" fill="#535355" x="162" y="24" width="5" height="184"></rect>
                </g>
                <g id="content-ipad" transform="translate(85.000000, 295.000000)">
                    <rect id="Rectangle" fill="#6F16DF" x="0" y="0" width="182" height="21"></rect>
                    <rect id="Rectangle" fill="#5212C5" x="0" y="0" width="182" height="5"></rect>
                    <rect id="Rectangle-Copy-6" fill="#FFFFFF" x="27" y="9" width="124" height="8"></rect>
                    <g id="icn" transform="translate(155.000000, 11.000000)" stroke="#FFFFFF" stroke-linecap="round" stroke-linejoin="round">
                        <path d="M2.16666667,0 C3.36331939,0 4.33333333,0.970013947 4.33333333,2.16666667 C4.33333333,3.36331939 3.36331939,4.33333333 2.16666667,4.33333333 C0.970125867,4.33333333 0,3.36331939 0,2.16666667 C0,0.970013947 0.970125867,0 2.16666667,0 Z" id="Stroke-1"></path>
                        <path d="M3.66666667,3.66666667 L5,5" id="Stroke-3"></path>
                    </g>
                    <rect id="Rectangle-Copy-7" fill="#9F9F9F" x="27" y="27" width="52" height="4"></rect>
                    <rect id="Rectangle-Copy-22" fill="#9F9F9F" x="27" y="56" width="42" height="4"></rect>
                    <rect id="Rectangle-Copy-8" fill="#EFEFEF" x="27" y="34" width="110" height="14"></rect>
                    <rect id="Rectangle-Copy-23" fill="#EFEFEF" x="27" y="67" width="110" height="14"></rect>
                    <rect id="Rectangle-Copy-7" fill="#B9B9B9" x="31" y="39" width="86" height="4"></rect>
                    <rect id="Rectangle-Copy-24" fill="#B9B9B9" x="31" y="72" width="86" height="4"></rect>
                    <g id="Icon-check" transform="translate(143.000000, 37.000000)">
                        <circle id="Oval" stroke="#7ED321" stroke-width="2" cx="4" cy="4" r="4"></circle>
                        <path d="M3.2152133,6.07967275 L3.13343996,6.16144609 L1.44871795,4.47672408 L2.0101868,3.91525523 L3.16416726,5.06923569 L6.05391577,2.17948718 L6.61538462,2.74095603 L3.24594059,6.11040005 L3.2152133,6.07967275 Z" id="Check-Icon" fill="#7ED321"></path>
                    </g>
                    <rect id="Rectangle-Copy-14" fill="#FFBA76" x="87" y="133" width="50" height="14" rx="7"></rect>
                    <rect id="Rectangle" fill="#6F16DF" x="0" y="0" width="182" height="21"></rect>
                    <rect id="Rectangle" fill="#5212C5" x="0" y="0" width="182" height="5"></rect>
                    <rect id="Rectangle-Copy-6" fill="#FFFFFF" x="27" y="9" width="124" height="8"></rect>
                    <rect id="Rectangle-Copy-29" fill-opacity="0.11" fill="#66DBF6" x="0" y="21" width="182" height="46"></rect>
                    <g id="icn" transform="translate(155.000000, 11.000000)" stroke="#FFFFFF" stroke-linecap="round" stroke-linejoin="round">
                        <path d="M2.16666667,0 C3.36331939,0 4.33333333,0.970013947 4.33333333,2.16666667 C4.33333333,3.36331939 3.36331939,4.33333333 2.16666667,4.33333333 C0.970125867,4.33333333 0,3.36331939 0,2.16666667 C0,0.970013947 0.970125867,0 2.16666667,0 Z" id="Stroke-1"></path>
                        <path d="M3.66666667,3.66666667 L5,5" id="Stroke-3"></path>
                    </g>
                    <rect id="Rectangle-Copy-7" fill="#9F9F9F" x="27" y="27" width="52" height="4"></rect>
                    <rect id="Rectangle-Copy-8" fill="#EFEFEF" x="27" y="34" width="110" height="14"></rect>
                    <rect id="Rectangle-Copy-7" fill="#B9B9B9" x="31" y="39" width="86" height="4"></rect>
                    <g id="Icon-check" transform="translate(143.000000, 37.000000)">
                        <circle id="Oval" stroke="#7ED321" stroke-width="0.5" cx="4" cy="4" r="4"></circle>
                        <path d="M3.2152133,6.07967275 L3.13343996,6.16144609 L1.44871795,4.47672408 L2.0101868,3.91525523 L3.16416726,5.06923569 L6.05391577,2.17948718 L6.61538462,2.74095603 L3.24594059,6.11040005 L3.2152133,6.07967275 Z" id="Check-Icon" fill="#7ED321"></path>
                    </g>
                </g>
                <g id="tel" transform="translate(370.000000, 215.000000)">
                    <rect id="Rectangle" fill="#6F16DF" x="0" y="21" width="92" height="21"></rect>
                    <rect id="Rectangle" fill="#5212C5" x="0" y="21" width="92" height="5"></rect>
                    <rect id="Rectangle-Copy-6" fill="#FFFFFF" x="4" y="31" width="68" height="5"></rect>
                    <path d="M0.0325850731,9.66666667 C0.457320279,4.25725606 4.98149242,-5.58296855e-14 10.5,-5.68434189e-14 L81.5,-5.68434189e-14 C87.0185076,-5.78571523e-14 91.5426797,4.25725606 91.9674149,9.66666667 L92,9.66666667 L92,21 L0,21 L0,9.66666667 L0.0325850731,9.66666667 Z" id="Rectangle-Copy-4" fill="#535355"></path>
                    <path d="M0.0325850731,184.666667 C0.457320279,179.257256 4.98149242,175 10.5,175 L81.5,175 C87.0185076,175 91.5426797,179.257256 91.9674149,184.666667 L92,184.666667 L92,196 L0,196 L0,184.666667 L0.0325850731,184.666667 Z" id="Rectangle-Copy-5" fill="#59595B" transform="translate(46.000000, 185.500000) scale(1, -1) translate(-46.000000, -185.500000) "></path>
                    <rect id="Rectangle-Copy" fill="#FFFFFF" x="0" y="42" width="92" height="136"></rect>
                    <rect id="Rectangle-Copy-7" fill="#9F9F9F" x="4" y="47" width="32" height="4"></rect>
                    <rect id="Rectangle-Copy-9" fill="#9F9F9F" x="4" y="72" width="25" height="4"></rect>
                    <rect id="Rectangle-Copy-12" fill="#9F9F9F" x="4" y="97" width="18" height="4"></rect>
                    <rect id="Rectangle-Copy-15" fill="#9F9F9F" x="4" y="122" width="38" height="4"></rect>
                    <rect id="Rectangle-Copy-18" fill="#9F9F9F" x="4" y="147" width="25" height="4"></rect>
                    <rect id="Rectangle-Copy-8" fill="#EFEFEF" x="4" y="53" width="84" height="13"></rect>
                    <rect id="Rectangle-Copy-10" fill="#EFEFEF" x="4" y="78" width="84" height="13"></rect>
                    <rect id="Rectangle-Copy-13" fill="#EFEFEF" x="4" y="104" width="84" height="13"></rect>
                    <rect id="Rectangle-Copy-16" fill="#EFEFEF" x="4" y="129" width="84" height="13"></rect>
                    <rect id="Rectangle-Copy-19" fill="#EFEFEF" x="4" y="154" width="84" height="13"></rect>
                    <rect id="Rectangle-Copy-14" fill="#FFBA76" x="9" y="162" width="72" height="13" rx="6.5"></rect>
                    <rect id="Rectangle-Copy-7" fill="#B9B9B9" x="8" y="58" width="36" height="4"></rect>
                    <rect id="Rectangle-Copy-11" fill="#B9B9B9" x="8" y="83" width="53" height="4"></rect>
                    <rect id="Rectangle-Copy-14" fill="#B9B9B9" x="8" y="108" width="53" height="4"></rect>
                    <g id="icn" transform="translate(76.000000, 31.000000)" stroke="#FFFFFF" stroke-linecap="round" stroke-linejoin="round">
                        <path d="M2.16666667,0 C3.36331939,0 4.33333333,0.970013947 4.33333333,2.16666667 C4.33333333,3.36331939 3.36331939,4.33333333 2.16666667,4.33333333 C0.970125867,4.33333333 0,3.36331939 0,2.16666667 C0,0.970013947 0.970125867,0 2.16666667,0 Z" id="Stroke-1"></path>
                        <path d="M3.66666667,3.66666667 L5,5" id="Stroke-3"></path>
                    </g>
                    <g id="Icon-check" transform="translate(78.000000, 56.000000)">
                        <circle id="Oval" stroke="#7ED321" stroke-width="2" cx="4" cy="4" r="4"></circle>
                        <path d="M3.2152133,6.07967275 L3.13343996,6.16144609 L1.44871795,4.47672408 L2.0101868,3.91525523 L3.16416726,5.06923569 L6.05391577,2.17948718 L6.61538462,2.74095603 L3.24594059,6.11040005 L3.2152133,6.07967275 Z" id="Check-Icon" fill="#7ED321"></path>
                    </g>
                    <g id="Icon-check-Copy" transform="translate(78.000000, 81.000000)">
                        <circle id="Oval" stroke="#7ED321" stroke-width="2" cx="4" cy="4" r="4"></circle>
                        <path d="M3.2152133,6.07967275 L3.13343996,6.16144609 L1.44871795,4.47672408 L2.0101868,3.91525523 L3.16416726,5.06923569 L6.05391577,2.17948718 L6.61538462,2.74095603 L3.24594059,6.11040005 L3.2152133,6.07967275 Z" id="Check-Icon" fill="#7ED321"></path>
                    </g>
                    <rect id="Rectangle" fill="#000000" x="35" y="10" width="23" height="3" rx="1.5"></rect>
                    <rect id="Rectangle-Copy-20" fill="#9B9B9B" x="60" y="10" width="3" height="3" rx="1.5"></rect>
                    <rect id="Rectangle-Copy-17" fill="#000000" x="35" y="186" width="23" height="3" rx="1.5"></rect>
                </g>
                <rect id="Rectangle" fill="#6F16DF" x="0" y="0" width="176" height="106"></rect>
                <rect id="Rectangle-Copy-7" stroke="#979797" fill="#FFFFFF" x="19.5" y="23.5" width="67" height="11"></rect>
                <rect id="Rectangle-Copy-7" stroke="#979797" fill="#FFFFFF" x="19.5" y="47.5" width="138" height="11"></rect>
                <rect id="Rectangle-Copy-8" stroke="#979797" fill="#FFFFFF" x="19.5" y="71.5" width="138" height="11"></rect>
                <use id="Rectangle-Copy-15" stroke="#FF8206" mask="url(#mask-2)" stroke-width="6" fill-opacity="0.2" fill="#FFBA76" stroke-linejoin="round" stroke-dasharray="6,6" xlink:href="#path-1"></use>
                <rect id="Rectangle-Copy-14" fill="#FFBA76" x="252" y="429" width="187" height="77"></rect>
                <path d="M416.361806,487.565864 L426.361806,510.565864 L406.361806,510.565864 L416.361806,487.565864 Z M414.861806,511.157747 L417.861806,511.157747 L417.861806,525.157747 L414.861806,525.157747 L414.861806,511.157747 Z" id="Triangle-2" fill="#FFFFFF" transform="translate(416.361806, 506.361806) rotate(-45.000000) translate(-416.361806, -506.361806) "></path>
            </g>
        </g>
    </g>
</svg>