<svg width="127" height="36" viewBox="0 0 127 36" fill="none" xmlns="http://www.w3.org/2000/svg">
<path d="M4.56 21.73L3.51 20.23C3.44333 20.1433 3.40333 20.0433 3.39 19.93C3.38333 19.81 3.4 19.7 3.44 19.6C3.48 19.4933 3.54 19.4033 3.62 19.33C3.70667 19.2567 3.81 19.22 3.93 19.22H3.98C4.04667 19.2333 4.11333 19.2533 4.18 19.28H4.2C4.21333 19.2933 4.22667 19.3033 4.24 19.31C4.25333 19.31 4.26667 19.3167 4.28 19.33L4.32 19.35C4.34 19.3633 4.35667 19.38 4.37 19.4C4.39 19.42 4.41 19.44 4.43 19.46L4.46 19.51L11.46 29.48V19.83C11.46 19.6567 11.52 19.51 11.64 19.39C11.7667 19.2633 11.92 19.2 12.1 19.2C12.28 19.2 12.4267 19.2633 12.54 19.39C12.66 19.51 12.72 19.6567 12.72 19.83V31.38C12.72 31.5333 12.67 31.6667 12.57 31.78C12.4767 31.8933 12.3567 31.9633 12.21 31.99C12.1833 31.9967 12.1433 32 12.09 32C11.9033 32 11.7467 31.9367 11.62 31.81L11.58 31.75L11.55 31.72L4.56 21.73V31.38C4.56 31.5533 4.49667 31.7 4.37 31.82C4.25 31.94 4.10333 32 3.93 32C3.75667 32 3.60667 31.94 3.48 31.82C3.36 31.7 3.3 31.5533 3.3 31.38V19.84C3.3 19.6667 3.36 19.52 3.48 19.4C3.60667 19.28 3.75667 19.22 3.93 19.22H3.98C4.05333 19.2333 4.12 19.2533 4.18 19.28H4.2C4.21333 19.2933 4.22667 19.3033 4.24 19.31C4.25333 19.31 4.26667 19.3167 4.28 19.33C4.29333 19.33 4.30667 19.3367 4.32 19.35C4.39333 19.4033 4.45 19.4733 4.49 19.56C4.53667 19.6467 4.56 19.74 4.56 19.84V21.73ZM15.3111 27.36C15.3111 26.8733 15.4011 26.4167 15.5811 25.99C15.7678 25.5633 16.0178 25.1933 16.3311 24.88C16.6511 24.56 17.0244 24.31 17.4511 24.13C17.8778 23.9433 18.3344 23.85 18.8211 23.85C19.3144 23.85 19.7744 23.9433 20.2011 24.13C20.6278 24.31 20.9978 24.56 21.3111 24.88C21.6311 25.1933 21.8811 25.5633 22.0611 25.99C22.2411 26.4167 22.3311 26.8733 22.3311 27.36C22.3311 27.84 22.2411 28.2933 22.0611 28.72C21.8811 29.14 21.6311 29.51 21.3111 29.83C20.9978 30.1433 20.6278 30.3933 20.2011 30.58C19.7744 30.7667 19.3144 30.86 18.8211 30.86C18.3278 30.86 17.8678 30.7667 17.4411 30.58C17.0144 30.3933 16.6444 30.1433 16.3311 29.83C16.0178 29.51 15.7678 29.14 15.5811 28.72C15.4011 28.2933 15.3111 27.84 15.3111 27.36ZM14.0511 27.36C14.0511 28.0133 14.1744 28.63 14.4211 29.21C14.6744 29.79 15.0178 30.2967 15.4511 30.73C15.8844 31.1567 16.3911 31.4967 16.9711 31.75C17.5511 31.9967 18.1678 32.12 18.8211 32.12C19.4811 32.12 20.0978 31.9967 20.6711 31.75C21.2511 31.4967 21.7544 31.1567 22.1811 30.73C22.6144 30.2967 22.9544 29.79 23.2011 29.21C23.4544 28.63 23.5811 28.0133 23.5811 27.36C23.5811 26.7 23.4544 26.08 23.2011 25.5C22.9544 24.9133 22.6144 24.4067 22.1811 23.98C21.7544 23.5467 21.2511 23.2067 20.6711 22.96C20.0978 22.7067 19.4811 22.58 18.8211 22.58C18.1678 22.58 17.5511 22.7067 16.9711 22.96C16.3911 23.2067 15.8844 23.5467 15.4511 23.98C15.0178 24.4067 14.6744 24.9133 14.4211 25.5C14.1744 26.08 14.0511 26.7 14.0511 27.36ZM40.0439 21.04C39.4039 20.4 38.6839 19.9167 37.8839 19.59C37.0906 19.2633 36.2739 19.1 35.4339 19.1C34.8006 19.1 34.2006 19.1833 33.6339 19.35C33.0739 19.51 32.5506 19.7367 32.0639 20.03C31.5839 20.3233 31.1506 20.6733 30.7639 21.08C30.3772 21.4867 30.0472 21.93 29.7739 22.41C29.5072 22.89 29.3006 23.4033 29.1539 23.95C29.0072 24.4967 28.9339 25.0533 28.9339 25.62C28.9339 26.22 29.0106 26.7967 29.1639 27.35C29.3172 27.9033 29.5339 28.4233 29.8139 28.91C30.0939 29.39 30.4306 29.83 30.8239 30.23C31.2172 30.6233 31.6539 30.96 32.1339 31.24C32.6139 31.52 33.1306 31.74 33.6839 31.9C34.2372 32.0533 34.8106 32.13 35.4039 32.13C36.2506 32.13 37.0706 31.9767 37.8639 31.67C38.6572 31.3567 39.3806 30.8733 40.0339 30.22C40.1472 30.1067 40.2039 29.96 40.2039 29.78C40.2106 29.6 40.1506 29.45 40.0239 29.33C39.9039 29.2167 39.7572 29.1633 39.5839 29.17C39.4106 29.17 39.2606 29.23 39.1339 29.35C38.6006 29.8833 38.0172 30.27 37.3839 30.51C36.7506 30.75 36.0906 30.8667 35.4039 30.86C34.6572 30.86 33.9639 30.72 33.3239 30.44C32.6906 30.1533 32.1406 29.77 31.6739 29.29C31.2139 28.81 30.8506 28.2533 30.5839 27.62C30.3239 26.9867 30.1939 26.32 30.1939 25.62C30.1939 24.8933 30.3306 24.21 30.6039 23.57C30.8772 22.93 31.2506 22.3733 31.7239 21.9C32.1972 21.4267 32.7506 21.0533 33.3839 20.78C34.0239 20.5067 34.7039 20.37 35.4239 20.37C36.1106 20.37 36.7739 20.5 37.4139 20.76C38.0539 21.02 38.6372 21.41 39.1639 21.93C39.2772 22.05 39.4206 22.11 39.5939 22.11C39.7739 22.1033 39.9272 22.04 40.0539 21.92C40.1739 21.7933 40.2339 21.6467 40.2339 21.48C40.2339 21.3133 40.1706 21.1667 40.0439 21.04ZM42.3619 27.36C42.3619 26.8733 42.4519 26.4167 42.6319 25.99C42.8185 25.5633 43.0685 25.1933 43.3819 24.88C43.7019 24.56 44.0752 24.31 44.5019 24.13C44.9285 23.9433 45.3852 23.85 45.8719 23.85C46.3652 23.85 46.8252 23.9433 47.2519 24.13C47.6785 24.31 48.0485 24.56 48.3619 24.88C48.6819 25.1933 48.9319 25.5633 49.1119 25.99C49.2919 26.4167 49.3819 26.8733 49.3819 27.36C49.3819 27.84 49.2919 28.2933 49.1119 28.72C48.9319 29.14 48.6819 29.51 48.3619 29.83C48.0485 30.1433 47.6785 30.3933 47.2519 30.58C46.8252 30.7667 46.3652 30.86 45.8719 30.86C45.3785 30.86 44.9185 30.7667 44.4919 30.58C44.0652 30.3933 43.6952 30.1433 43.3819 29.83C43.0685 29.51 42.8185 29.14 42.6319 28.72C42.4519 28.2933 42.3619 27.84 42.3619 27.36ZM41.1019 27.36C41.1019 28.0133 41.2252 28.63 41.4719 29.21C41.7252 29.79 42.0685 30.2967 42.5019 30.73C42.9352 31.1567 43.4419 31.4967 44.0219 31.75C44.6019 31.9967 45.2185 32.12 45.8719 32.12C46.5319 32.12 47.1485 31.9967 47.7219 31.75C48.3019 31.4967 48.8052 31.1567 49.2319 30.73C49.6652 30.2967 50.0052 29.79 50.2519 29.21C50.5052 28.63 50.6319 28.0133 50.6319 27.36C50.6319 26.7 50.5052 26.08 50.2519 25.5C50.0052 24.9133 49.6652 24.4067 49.2319 23.98C48.8052 23.5467 48.3019 23.2067 47.7219 22.96C47.1485 22.7067 46.5319 22.58 45.8719 22.58C45.2185 22.58 44.6019 22.7067 44.0219 22.96C43.4419 23.2067 42.9352 23.5467 42.5019 23.98C42.0685 24.4067 41.7252 24.9133 41.4719 25.5C41.2252 26.08 41.1019 26.7 41.1019 27.36ZM61.0225 31.38C61.0225 31.5533 60.9592 31.7 60.8325 31.82C60.7125 31.94 60.5658 32 60.3925 32C60.2192 32 60.0692 31.94 59.9425 31.82C59.8225 31.7 59.7625 31.5533 59.7625 31.38V30.58C59.3225 31.0533 58.8025 31.4267 58.2025 31.7C57.6092 31.9733 56.9625 32.11 56.2625 32.11C55.6092 32.11 54.9925 31.9867 54.4125 31.74C53.8325 31.4867 53.3258 31.1433 52.8925 30.71C52.4592 30.2767 52.1158 29.7733 51.8625 29.2C51.6158 28.62 51.4925 28 51.4925 27.34C51.4925 26.68 51.6158 26.0633 51.8625 25.49C52.1158 24.91 52.4592 24.4067 52.8925 23.98C53.3258 23.5467 53.8325 23.2067 54.4125 22.96C54.9925 22.7067 55.6092 22.58 56.2625 22.58C56.9625 22.58 57.6092 22.7167 58.2025 22.99C58.8025 23.2633 59.3225 23.6367 59.7625 24.11V19.82C59.7625 19.64 59.8225 19.4933 59.9425 19.38C60.0692 19.26 60.2192 19.2 60.3925 19.2C60.5658 19.2 60.7125 19.26 60.8325 19.38C60.9592 19.4933 61.0225 19.64 61.0225 19.82V31.38ZM52.7625 27.34C52.7625 27.82 52.8525 28.2733 53.0325 28.7C53.2125 29.1267 53.4592 29.5 53.7725 29.82C54.0925 30.1333 54.4625 30.3833 54.8825 30.57C55.3092 30.7567 55.7692 30.85 56.2625 30.85C56.7558 30.85 57.2158 30.7567 57.6425 30.57C58.0692 30.3833 58.4392 30.1333 58.7525 29.82C59.0658 29.5 59.3125 29.1267 59.4925 28.7C59.6725 28.2733 59.7625 27.82 59.7625 27.34C59.7625 26.8533 59.6725 26.4 59.4925 25.98C59.3125 25.5533 59.0658 25.1833 58.7525 24.87C58.4392 24.5567 58.0692 24.31 57.6425 24.13C57.2158 23.9433 56.7558 23.85 56.2625 23.85C55.7758 23.85 55.3192 23.9433 54.8925 24.13C54.4658 24.31 54.0958 24.5567 53.7825 24.87C53.4692 25.1833 53.2192 25.5533 53.0325 25.98C52.8525 26.4 52.7625 26.8533 52.7625 27.34ZM71.4091 27.93C71.5891 27.93 71.7357 27.8733 71.8491 27.76C71.9624 27.64 72.0191 27.4933 72.0191 27.32C72.0124 26.6667 71.8824 26.0533 71.6291 25.48C71.3757 24.9 71.0324 24.3967 70.5991 23.97C70.1724 23.5433 69.6691 23.2067 69.0891 22.96C68.5091 22.7133 67.8924 22.59 67.2391 22.59C66.5791 22.59 65.9591 22.7167 65.3791 22.97C64.8057 23.2167 64.3024 23.5567 63.8691 23.99C63.4357 24.4167 63.0924 24.92 62.8391 25.5C62.5924 26.0733 62.4691 26.69 62.4691 27.35C62.4691 28.01 62.5924 28.63 62.8391 29.21C63.0924 29.79 63.4357 30.2967 63.8691 30.73C64.3024 31.1567 64.8057 31.4967 65.3791 31.75C65.9591 31.9967 66.5791 32.12 67.2391 32.12C67.6191 32.12 67.9724 32.0833 68.2991 32.01C68.6257 31.9433 68.9257 31.85 69.1991 31.73C69.4791 31.6033 69.7324 31.4567 69.9591 31.29C70.1857 31.1233 70.3891 30.94 70.5691 30.74C70.7224 30.6067 70.7991 30.46 70.7991 30.3C70.8057 30.14 70.7624 30.0033 70.6691 29.89C70.6024 29.7633 70.5091 29.68 70.3891 29.64C70.2891 29.6067 70.1857 29.6 70.0791 29.62C69.9791 29.6333 69.8724 29.6867 69.7591 29.78C69.4791 30.12 69.1224 30.3933 68.6891 30.6C68.2557 30.8 67.7724 30.9 67.2391 30.9C66.8057 30.9 66.3957 30.8233 66.0091 30.67C65.6224 30.5167 65.2791 30.3067 64.9791 30.04C64.6791 29.7733 64.4291 29.46 64.2291 29.1C64.0357 28.74 63.9124 28.35 63.8591 27.93H71.4091ZM63.8291 26.87C63.8691 26.4433 63.9857 26.0433 64.1791 25.67C64.3724 25.29 64.6224 24.9633 64.9291 24.69C65.2357 24.41 65.5857 24.19 65.9791 24.03C66.3791 23.87 66.8057 23.79 67.2591 23.79C67.7124 23.79 68.1391 23.87 68.5391 24.03C68.9391 24.1833 69.2924 24.4 69.5991 24.68C69.9124 24.9533 70.1657 25.28 70.3591 25.66C70.5591 26.0333 70.6824 26.4367 70.7291 26.87H63.8291ZM81.8814 25.88C82.2481 26 82.6114 26.1267 82.9714 26.26C83.3314 26.3867 83.6547 26.5433 83.9414 26.73C84.2281 26.91 84.4581 27.13 84.6314 27.39C84.8047 27.6433 84.8914 27.96 84.8914 28.34C84.8914 28.7533 84.8047 29.12 84.6314 29.44C84.4581 29.7533 84.2314 30.0167 83.9514 30.23C83.6714 30.4433 83.3547 30.6033 83.0014 30.71C82.6547 30.8167 82.3047 30.87 81.9514 30.87C81.6114 30.87 81.2814 30.83 80.9614 30.75C80.6414 30.67 80.3447 30.5567 80.0714 30.41C79.7981 30.2567 79.5514 30.0733 79.3314 29.86C79.1181 29.6467 78.9481 29.4067 78.8214 29.14C78.6747 28.9533 78.5314 28.8367 78.3914 28.79C78.2581 28.7367 78.1147 28.7533 77.9614 28.84C77.8281 28.9133 77.7247 29.0233 77.6514 29.17C77.5847 29.31 77.6014 29.4867 77.7014 29.7C77.8481 30.04 78.0581 30.36 78.3314 30.66C78.6114 30.9533 78.9347 31.21 79.3014 31.43C79.6747 31.6433 80.0814 31.8133 80.5214 31.94C80.9614 32.0667 81.4181 32.13 81.8914 32.13C82.4581 32.13 82.9981 32.04 83.5114 31.86C84.0314 31.6733 84.4847 31.4133 84.8714 31.08C85.2647 30.74 85.5747 30.3367 85.8014 29.87C86.0347 29.3967 86.1514 28.87 86.1514 28.29C86.1514 27.75 86.0414 27.2867 85.8214 26.9C85.6014 26.5133 85.3081 26.18 84.9414 25.9C84.5814 25.62 84.1647 25.3833 83.6914 25.19C83.2247 24.9967 82.7447 24.8233 82.2514 24.67C81.9314 24.59 81.5947 24.5 81.2414 24.4C80.8881 24.2933 80.5614 24.1567 80.2614 23.99C79.9681 23.8233 79.7247 23.62 79.5314 23.38C79.3381 23.1333 79.2414 22.8267 79.2414 22.46C79.2414 22.1133 79.3214 21.81 79.4814 21.55C79.6481 21.2833 79.8581 21.0633 80.1114 20.89C80.3714 20.7167 80.6581 20.5867 80.9714 20.5C81.2847 20.4067 81.5981 20.36 81.9114 20.36C82.4714 20.36 82.9714 20.4567 83.4114 20.65C83.8514 20.8367 84.2647 21.1667 84.6514 21.64C84.7914 21.7467 84.9347 21.7933 85.0814 21.78C85.2347 21.76 85.3581 21.7067 85.4514 21.62C85.5247 21.5467 85.5814 21.45 85.6214 21.33C85.6614 21.2033 85.6447 21.08 85.5714 20.96C85.3981 20.6533 85.1814 20.3867 84.9214 20.16C84.6614 19.9267 84.3714 19.7333 84.0514 19.58C83.7314 19.42 83.3881 19.3 83.0214 19.22C82.6547 19.14 82.2781 19.1 81.8914 19.1C81.4114 19.1 80.9381 19.18 80.4714 19.34C80.0047 19.4933 79.5847 19.7167 79.2114 20.01C78.8447 20.2967 78.5481 20.65 78.3214 21.07C78.0947 21.4833 77.9814 21.95 77.9814 22.47C77.9814 22.9833 78.0947 23.43 78.3214 23.81C78.5481 24.1833 78.8447 24.5067 79.2114 24.78C79.5781 25.0467 79.9947 25.27 80.4614 25.45C80.9281 25.6233 81.4014 25.7667 81.8814 25.88ZM89.9542 22.59H91.2842C91.4642 22.59 91.6142 22.65 91.7342 22.77C91.8542 22.89 91.9142 23.0367 91.9142 23.21C91.9142 23.3967 91.8542 23.55 91.7342 23.67C91.6142 23.79 91.4642 23.85 91.2842 23.85H89.9542V31.38C89.9542 31.5533 89.8909 31.7 89.7642 31.82C89.6442 31.94 89.4976 32 89.3242 32C89.1509 32 89.0042 31.94 88.8842 31.82C88.7642 31.7 88.7042 31.5533 88.7042 31.38V23.85H87.6042C87.4309 23.85 87.2809 23.79 87.1542 23.67C87.0342 23.5433 86.9742 23.39 86.9742 23.21C86.9742 23.0367 87.0342 22.89 87.1542 22.77C87.2809 22.65 87.4309 22.59 87.6042 22.59H88.7042V19.82C88.7042 19.64 88.7642 19.4933 88.8842 19.38C89.0042 19.26 89.1509 19.2 89.3242 19.2C89.4976 19.2 89.6442 19.26 89.7642 19.38C89.8909 19.4933 89.9542 19.64 89.9542 19.82V22.59ZM92.9881 23.2C92.9881 23.02 93.0481 22.8733 93.1681 22.76C93.2881 22.64 93.4415 22.58 93.6281 22.58C93.8015 22.58 93.9448 22.64 94.0581 22.76C94.1781 22.8733 94.2381 23.02 94.2381 23.2V27.39V27.44C94.2448 28.5067 94.4815 29.3233 94.9481 29.89C95.4215 30.4567 96.0748 30.74 96.9081 30.74C97.3215 30.74 97.7081 30.6567 98.0681 30.49C98.4348 30.3233 98.7515 30.0933 99.0181 29.8C99.2915 29.5 99.5048 29.15 99.6581 28.75C99.8181 28.35 99.8981 27.9167 99.8981 27.45V23.22C99.8981 23.0467 99.9581 22.8967 100.078 22.77C100.198 22.6433 100.345 22.58 100.518 22.58C100.691 22.58 100.838 22.6433 100.958 22.77C101.085 22.8967 101.148 23.0467 101.148 23.22V31.37C101.148 31.55 101.085 31.7033 100.958 31.83C100.838 31.95 100.691 32.01 100.518 32.01C100.338 32.01 100.188 31.95 100.068 31.83C99.9548 31.7033 99.8981 31.55 99.8981 31.37V30.3C99.5048 30.8133 99.0381 31.2267 98.4981 31.54C97.9581 31.8467 97.3815 32 96.7681 32C96.1881 32 95.6648 31.8933 95.1981 31.68C94.7381 31.46 94.3415 31.15 94.0081 30.75C93.6815 30.35 93.4281 29.8667 93.2481 29.3C93.0748 28.7333 92.9881 28.1 92.9881 27.4V27.39V23.2ZM112.097 31.38C112.097 31.5533 112.033 31.7 111.907 31.82C111.787 31.94 111.64 32 111.467 32C111.293 32 111.143 31.94 111.017 31.82C110.897 31.7 110.837 31.5533 110.837 31.38V30.58C110.397 31.0533 109.877 31.4267 109.277 31.7C108.683 31.9733 108.037 32.11 107.337 32.11C106.683 32.11 106.067 31.9867 105.487 31.74C104.907 31.4867 104.4 31.1433 103.967 30.71C103.533 30.2767 103.19 29.7733 102.937 29.2C102.69 28.62 102.567 28 102.567 27.34C102.567 26.68 102.69 26.0633 102.937 25.49C103.19 24.91 103.533 24.4067 103.967 23.98C104.4 23.5467 104.907 23.2067 105.487 22.96C106.067 22.7067 106.683 22.58 107.337 22.58C108.037 22.58 108.683 22.7167 109.277 22.99C109.877 23.2633 110.397 23.6367 110.837 24.11V19.82C110.837 19.64 110.897 19.4933 111.017 19.38C111.143 19.26 111.293 19.2 111.467 19.2C111.64 19.2 111.787 19.26 111.907 19.38C112.033 19.4933 112.097 19.64 112.097 19.82V31.38ZM103.837 27.34C103.837 27.82 103.927 28.2733 104.107 28.7C104.287 29.1267 104.533 29.5 104.847 29.82C105.167 30.1333 105.537 30.3833 105.957 30.57C106.383 30.7567 106.843 30.85 107.337 30.85C107.83 30.85 108.29 30.7567 108.717 30.57C109.143 30.3833 109.513 30.1333 109.827 29.82C110.14 29.5 110.387 29.1267 110.567 28.7C110.747 28.2733 110.837 27.82 110.837 27.34C110.837 26.8533 110.747 26.4 110.567 25.98C110.387 25.5533 110.14 25.1833 109.827 24.87C109.513 24.5567 109.143 24.31 108.717 24.13C108.29 23.9433 107.83 23.85 107.337 23.85C106.85 23.85 106.393 23.9433 105.967 24.13C105.54 24.31 105.17 24.5567 104.857 24.87C104.543 25.1833 104.293 25.5533 104.107 25.98C103.927 26.4 103.837 26.8533 103.837 27.34ZM113.983 20.43C113.983 20.63 114.057 20.8067 114.203 20.96C114.35 21.1067 114.527 21.18 114.733 21.18C114.947 21.18 115.13 21.1067 115.283 20.96C115.437 20.8067 115.513 20.63 115.513 20.43C115.513 20.21 115.437 20.0267 115.283 19.88C115.13 19.7333 114.947 19.66 114.733 19.66C114.527 19.66 114.35 19.7333 114.203 19.88C114.057 20.0267 113.983 20.21 113.983 20.43ZM115.373 23.21C115.373 23.0367 115.313 22.89 115.193 22.77C115.073 22.6433 114.927 22.58 114.753 22.58C114.58 22.58 114.43 22.6433 114.303 22.77C114.177 22.89 114.113 23.0367 114.113 23.21V31.36C114.113 31.54 114.173 31.6933 114.293 31.82C114.42 31.94 114.57 32 114.743 32C114.917 32 115.063 31.94 115.183 31.82C115.31 31.6933 115.373 31.54 115.373 31.36V23.21ZM118.045 27.36C118.045 26.8733 118.135 26.4167 118.315 25.99C118.502 25.5633 118.752 25.1933 119.065 24.88C119.385 24.56 119.759 24.31 120.185 24.13C120.612 23.9433 121.069 23.85 121.555 23.85C122.049 23.85 122.509 23.9433 122.935 24.13C123.362 24.31 123.732 24.56 124.045 24.88C124.365 25.1933 124.615 25.5633 124.795 25.99C124.975 26.4167 125.065 26.8733 125.065 27.36C125.065 27.84 124.975 28.2933 124.795 28.72C124.615 29.14 124.365 29.51 124.045 29.83C123.732 30.1433 123.362 30.3933 122.935 30.58C122.509 30.7667 122.049 30.86 121.555 30.86C121.062 30.86 120.602 30.7667 120.175 30.58C119.749 30.3933 119.379 30.1433 119.065 29.83C118.752 29.51 118.502 29.14 118.315 28.72C118.135 28.2933 118.045 27.84 118.045 27.36ZM116.785 27.36C116.785 28.0133 116.909 28.63 117.155 29.21C117.409 29.79 117.752 30.2967 118.185 30.73C118.619 31.1567 119.125 31.4967 119.705 31.75C120.285 31.9967 120.902 32.12 121.555 32.12C122.215 32.12 122.832 31.9967 123.405 31.75C123.985 31.4967 124.489 31.1567 124.915 30.73C125.349 30.2967 125.689 29.79 125.935 29.21C126.189 28.63 126.315 28.0133 126.315 27.36C126.315 26.7 126.189 26.08 125.935 25.5C125.689 24.9133 125.349 24.4067 124.915 23.98C124.489 23.5467 123.985 23.2067 123.405 22.96C122.832 22.7067 122.215 22.58 121.555 22.58C120.902 22.58 120.285 22.7067 119.705 22.96C119.125 23.2067 118.619 23.5467 118.185 23.98C117.752 24.4067 117.409 24.9133 117.155 25.5C116.909 26.08 116.785 26.7 116.785 27.36Z" fill="#3880FF" fill-opacity="0.3"/>
<path d="M2.56 14.73L1.51 13.23C1.44333 13.1433 1.40333 13.0433 1.39 12.93C1.38333 12.81 1.4 12.7 1.44 12.6C1.48 12.4933 1.54 12.4033 1.62 12.33C1.70667 12.2567 1.81 12.22 1.93 12.22H1.98C2.04667 12.2333 2.11333 12.2533 2.18 12.28H2.2C2.21333 12.2933 2.22667 12.3033 2.24 12.31C2.25333 12.31 2.26667 12.3167 2.28 12.33L2.32 12.35C2.34 12.3633 2.35667 12.38 2.37 12.4C2.39 12.42 2.41 12.44 2.43 12.46L2.46 12.51L9.46 22.48V12.83C9.46 12.6567 9.52 12.51 9.64 12.39C9.76667 12.2633 9.92 12.2 10.1 12.2C10.28 12.2 10.4267 12.2633 10.54 12.39C10.66 12.51 10.72 12.6567 10.72 12.83V24.38C10.72 24.5333 10.67 24.6667 10.57 24.78C10.4767 24.8933 10.3567 24.9633 10.21 24.99C10.1833 24.9967 10.1433 25 10.09 25C9.90333 25 9.74667 24.9367 9.62 24.81L9.58 24.75L9.55 24.72L2.56 14.73V24.38C2.56 24.5533 2.49667 24.7 2.37 24.82C2.25 24.94 2.10333 25 1.93 25C1.75667 25 1.60667 24.94 1.48 24.82C1.36 24.7 1.3 24.5533 1.3 24.38V12.84C1.3 12.6667 1.36 12.52 1.48 12.4C1.60667 12.28 1.75667 12.22 1.93 12.22H1.98C2.05333 12.2333 2.12 12.2533 2.18 12.28H2.2C2.21333 12.2933 2.22667 12.3033 2.24 12.31C2.25333 12.31 2.26667 12.3167 2.28 12.33C2.29333 12.33 2.30667 12.3367 2.32 12.35C2.39333 12.4033 2.45 12.4733 2.49 12.56C2.53667 12.6467 2.56 12.74 2.56 12.84V14.73ZM13.3111 20.36C13.3111 19.8733 13.4011 19.4167 13.5811 18.99C13.7678 18.5633 14.0178 18.1933 14.3311 17.88C14.6511 17.56 15.0244 17.31 15.4511 17.13C15.8778 16.9433 16.3344 16.85 16.8211 16.85C17.3144 16.85 17.7744 16.9433 18.2011 17.13C18.6278 17.31 18.9978 17.56 19.3111 17.88C19.6311 18.1933 19.8811 18.5633 20.0611 18.99C20.2411 19.4167 20.3311 19.8733 20.3311 20.36C20.3311 20.84 20.2411 21.2933 20.0611 21.72C19.8811 22.14 19.6311 22.51 19.3111 22.83C18.9978 23.1433 18.6278 23.3933 18.2011 23.58C17.7744 23.7667 17.3144 23.86 16.8211 23.86C16.3278 23.86 15.8678 23.7667 15.4411 23.58C15.0144 23.3933 14.6444 23.1433 14.3311 22.83C14.0178 22.51 13.7678 22.14 13.5811 21.72C13.4011 21.2933 13.3111 20.84 13.3111 20.36ZM12.0511 20.36C12.0511 21.0133 12.1744 21.63 12.4211 22.21C12.6744 22.79 13.0178 23.2967 13.4511 23.73C13.8844 24.1567 14.3911 24.4967 14.9711 24.75C15.5511 24.9967 16.1678 25.12 16.8211 25.12C17.4811 25.12 18.0978 24.9967 18.6711 24.75C19.2511 24.4967 19.7544 24.1567 20.1811 23.73C20.6144 23.2967 20.9544 22.79 21.2011 22.21C21.4544 21.63 21.5811 21.0133 21.5811 20.36C21.5811 19.7 21.4544 19.08 21.2011 18.5C20.9544 17.9133 20.6144 17.4067 20.1811 16.98C19.7544 16.5467 19.2511 16.2067 18.6711 15.96C18.0978 15.7067 17.4811 15.58 16.8211 15.58C16.1678 15.58 15.5511 15.7067 14.9711 15.96C14.3911 16.2067 13.8844 16.5467 13.4511 16.98C13.0178 17.4067 12.6744 17.9133 12.4211 18.5C12.1744 19.08 12.0511 19.7 12.0511 20.36ZM38.0439 14.04C37.4039 13.4 36.6839 12.9167 35.8839 12.59C35.0906 12.2633 34.2739 12.1 33.4339 12.1C32.8006 12.1 32.2006 12.1833 31.6339 12.35C31.0739 12.51 30.5506 12.7367 30.0639 13.03C29.5839 13.3233 29.1506 13.6733 28.7639 14.08C28.3772 14.4867 28.0472 14.93 27.7739 15.41C27.5072 15.89 27.3006 16.4033 27.1539 16.95C27.0072 17.4967 26.9339 18.0533 26.9339 18.62C26.9339 19.22 27.0106 19.7967 27.1639 20.35C27.3172 20.9033 27.5339 21.4233 27.8139 21.91C28.0939 22.39 28.4306 22.83 28.8239 23.23C29.2172 23.6233 29.6539 23.96 30.1339 24.24C30.6139 24.52 31.1306 24.74 31.6839 24.9C32.2372 25.0533 32.8106 25.13 33.4039 25.13C34.2506 25.13 35.0706 24.9767 35.8639 24.67C36.6572 24.3567 37.3806 23.8733 38.0339 23.22C38.1472 23.1067 38.2039 22.96 38.2039 22.78C38.2106 22.6 38.1506 22.45 38.0239 22.33C37.9039 22.2167 37.7572 22.1633 37.5839 22.17C37.4106 22.17 37.2606 22.23 37.1339 22.35C36.6006 22.8833 36.0172 23.27 35.3839 23.51C34.7506 23.75 34.0906 23.8667 33.4039 23.86C32.6572 23.86 31.9639 23.72 31.3239 23.44C30.6906 23.1533 30.1406 22.77 29.6739 22.29C29.2139 21.81 28.8506 21.2533 28.5839 20.62C28.3239 19.9867 28.1939 19.32 28.1939 18.62C28.1939 17.8933 28.3306 17.21 28.6039 16.57C28.8772 15.93 29.2506 15.3733 29.7239 14.9C30.1972 14.4267 30.7506 14.0533 31.3839 13.78C32.0239 13.5067 32.7039 13.37 33.4239 13.37C34.1106 13.37 34.7739 13.5 35.4139 13.76C36.0539 14.02 36.6372 14.41 37.1639 14.93C37.2772 15.05 37.4206 15.11 37.5939 15.11C37.7739 15.1033 37.9272 15.04 38.0539 14.92C38.1739 14.7933 38.2339 14.6467 38.2339 14.48C38.2339 14.3133 38.1706 14.1667 38.0439 14.04ZM40.3619 20.36C40.3619 19.8733 40.4519 19.4167 40.6319 18.99C40.8185 18.5633 41.0685 18.1933 41.3819 17.88C41.7019 17.56 42.0752 17.31 42.5019 17.13C42.9285 16.9433 43.3852 16.85 43.8719 16.85C44.3652 16.85 44.8252 16.9433 45.2519 17.13C45.6785 17.31 46.0485 17.56 46.3619 17.88C46.6819 18.1933 46.9319 18.5633 47.1119 18.99C47.2919 19.4167 47.3819 19.8733 47.3819 20.36C47.3819 20.84 47.2919 21.2933 47.1119 21.72C46.9319 22.14 46.6819 22.51 46.3619 22.83C46.0485 23.1433 45.6785 23.3933 45.2519 23.58C44.8252 23.7667 44.3652 23.86 43.8719 23.86C43.3785 23.86 42.9185 23.7667 42.4919 23.58C42.0652 23.3933 41.6952 23.1433 41.3819 22.83C41.0685 22.51 40.8185 22.14 40.6319 21.72C40.4519 21.2933 40.3619 20.84 40.3619 20.36ZM39.1019 20.36C39.1019 21.0133 39.2252 21.63 39.4719 22.21C39.7252 22.79 40.0685 23.2967 40.5019 23.73C40.9352 24.1567 41.4419 24.4967 42.0219 24.75C42.6019 24.9967 43.2185 25.12 43.8719 25.12C44.5319 25.12 45.1485 24.9967 45.7219 24.75C46.3019 24.4967 46.8052 24.1567 47.2319 23.73C47.6652 23.2967 48.0052 22.79 48.2519 22.21C48.5052 21.63 48.6319 21.0133 48.6319 20.36C48.6319 19.7 48.5052 19.08 48.2519 18.5C48.0052 17.9133 47.6652 17.4067 47.2319 16.98C46.8052 16.5467 46.3019 16.2067 45.7219 15.96C45.1485 15.7067 44.5319 15.58 43.8719 15.58C43.2185 15.58 42.6019 15.7067 42.0219 15.96C41.4419 16.2067 40.9352 16.5467 40.5019 16.98C40.0685 17.4067 39.7252 17.9133 39.4719 18.5C39.2252 19.08 39.1019 19.7 39.1019 20.36ZM59.0225 24.38C59.0225 24.5533 58.9592 24.7 58.8325 24.82C58.7125 24.94 58.5658 25 58.3925 25C58.2192 25 58.0692 24.94 57.9425 24.82C57.8225 24.7 57.7625 24.5533 57.7625 24.38V23.58C57.3225 24.0533 56.8025 24.4267 56.2025 24.7C55.6092 24.9733 54.9625 25.11 54.2625 25.11C53.6092 25.11 52.9925 24.9867 52.4125 24.74C51.8325 24.4867 51.3258 24.1433 50.8925 23.71C50.4592 23.2767 50.1158 22.7733 49.8625 22.2C49.6158 21.62 49.4925 21 49.4925 20.34C49.4925 19.68 49.6158 19.0633 49.8625 18.49C50.1158 17.91 50.4592 17.4067 50.8925 16.98C51.3258 16.5467 51.8325 16.2067 52.4125 15.96C52.9925 15.7067 53.6092 15.58 54.2625 15.58C54.9625 15.58 55.6092 15.7167 56.2025 15.99C56.8025 16.2633 57.3225 16.6367 57.7625 17.11V12.82C57.7625 12.64 57.8225 12.4933 57.9425 12.38C58.0692 12.26 58.2192 12.2 58.3925 12.2C58.5658 12.2 58.7125 12.26 58.8325 12.38C58.9592 12.4933 59.0225 12.64 59.0225 12.82V24.38ZM50.7625 20.34C50.7625 20.82 50.8525 21.2733 51.0325 21.7C51.2125 22.1267 51.4592 22.5 51.7725 22.82C52.0925 23.1333 52.4625 23.3833 52.8825 23.57C53.3092 23.7567 53.7692 23.85 54.2625 23.85C54.7558 23.85 55.2158 23.7567 55.6425 23.57C56.0692 23.3833 56.4392 23.1333 56.7525 22.82C57.0658 22.5 57.3125 22.1267 57.4925 21.7C57.6725 21.2733 57.7625 20.82 57.7625 20.34C57.7625 19.8533 57.6725 19.4 57.4925 18.98C57.3125 18.5533 57.0658 18.1833 56.7525 17.87C56.4392 17.5567 56.0692 17.31 55.6425 17.13C55.2158 16.9433 54.7558 16.85 54.2625 16.85C53.7758 16.85 53.3192 16.9433 52.8925 17.13C52.4658 17.31 52.0958 17.5567 51.7825 17.87C51.4692 18.1833 51.2192 18.5533 51.0325 18.98C50.8525 19.4 50.7625 19.8533 50.7625 20.34ZM69.4091 20.93C69.5891 20.93 69.7357 20.8733 69.8491 20.76C69.9624 20.64 70.0191 20.4933 70.0191 20.32C70.0124 19.6667 69.8824 19.0533 69.6291 18.48C69.3757 17.9 69.0324 17.3967 68.5991 16.97C68.1724 16.5433 67.6691 16.2067 67.0891 15.96C66.5091 15.7133 65.8924 15.59 65.2391 15.59C64.5791 15.59 63.9591 15.7167 63.3791 15.97C62.8057 16.2167 62.3024 16.5567 61.8691 16.99C61.4357 17.4167 61.0924 17.92 60.8391 18.5C60.5924 19.0733 60.4691 19.69 60.4691 20.35C60.4691 21.01 60.5924 21.63 60.8391 22.21C61.0924 22.79 61.4357 23.2967 61.8691 23.73C62.3024 24.1567 62.8057 24.4967 63.3791 24.75C63.9591 24.9967 64.5791 25.12 65.2391 25.12C65.6191 25.12 65.9724 25.0833 66.2991 25.01C66.6257 24.9433 66.9257 24.85 67.1991 24.73C67.4791 24.6033 67.7324 24.4567 67.9591 24.29C68.1857 24.1233 68.3891 23.94 68.5691 23.74C68.7224 23.6067 68.7991 23.46 68.7991 23.3C68.8057 23.14 68.7624 23.0033 68.6691 22.89C68.6024 22.7633 68.5091 22.68 68.3891 22.64C68.2891 22.6067 68.1857 22.6 68.0791 22.62C67.9791 22.6333 67.8724 22.6867 67.7591 22.78C67.4791 23.12 67.1224 23.3933 66.6891 23.6C66.2557 23.8 65.7724 23.9 65.2391 23.9C64.8057 23.9 64.3957 23.8233 64.0091 23.67C63.6224 23.5167 63.2791 23.3067 62.9791 23.04C62.6791 22.7733 62.4291 22.46 62.2291 22.1C62.0357 21.74 61.9124 21.35 61.8591 20.93H69.4091ZM61.8291 19.87C61.8691 19.4433 61.9857 19.0433 62.1791 18.67C62.3724 18.29 62.6224 17.9633 62.9291 17.69C63.2357 17.41 63.5857 17.19 63.9791 17.03C64.3791 16.87 64.8057 16.79 65.2591 16.79C65.7124 16.79 66.1391 16.87 66.5391 17.03C66.9391 17.1833 67.2924 17.4 67.5991 17.68C67.9124 17.9533 68.1657 18.28 68.3591 18.66C68.5591 19.0333 68.6824 19.4367 68.7291 19.87H61.8291ZM79.8814 18.88C80.2481 19 80.6114 19.1267 80.9714 19.26C81.3314 19.3867 81.6547 19.5433 81.9414 19.73C82.2281 19.91 82.4581 20.13 82.6314 20.39C82.8047 20.6433 82.8914 20.96 82.8914 21.34C82.8914 21.7533 82.8047 22.12 82.6314 22.44C82.4581 22.7533 82.2314 23.0167 81.9514 23.23C81.6714 23.4433 81.3547 23.6033 81.0014 23.71C80.6547 23.8167 80.3047 23.87 79.9514 23.87C79.6114 23.87 79.2814 23.83 78.9614 23.75C78.6414 23.67 78.3447 23.5567 78.0714 23.41C77.7981 23.2567 77.5514 23.0733 77.3314 22.86C77.1181 22.6467 76.9481 22.4067 76.8214 22.14C76.6747 21.9533 76.5314 21.8367 76.3914 21.79C76.2581 21.7367 76.1147 21.7533 75.9614 21.84C75.8281 21.9133 75.7247 22.0233 75.6514 22.17C75.5847 22.31 75.6014 22.4867 75.7014 22.7C75.8481 23.04 76.0581 23.36 76.3314 23.66C76.6114 23.9533 76.9347 24.21 77.3014 24.43C77.6747 24.6433 78.0814 24.8133 78.5214 24.94C78.9614 25.0667 79.4181 25.13 79.8914 25.13C80.4581 25.13 80.9981 25.04 81.5114 24.86C82.0314 24.6733 82.4847 24.4133 82.8714 24.08C83.2647 23.74 83.5747 23.3367 83.8014 22.87C84.0347 22.3967 84.1514 21.87 84.1514 21.29C84.1514 20.75 84.0414 20.2867 83.8214 19.9C83.6014 19.5133 83.3081 19.18 82.9414 18.9C82.5814 18.62 82.1647 18.3833 81.6914 18.19C81.2247 17.9967 80.7447 17.8233 80.2514 17.67C79.9314 17.59 79.5947 17.5 79.2414 17.4C78.8881 17.2933 78.5614 17.1567 78.2614 16.99C77.9681 16.8233 77.7247 16.62 77.5314 16.38C77.3381 16.1333 77.2414 15.8267 77.2414 15.46C77.2414 15.1133 77.3214 14.81 77.4814 14.55C77.6481 14.2833 77.8581 14.0633 78.1114 13.89C78.3714 13.7167 78.6581 13.5867 78.9714 13.5C79.2847 13.4067 79.5981 13.36 79.9114 13.36C80.4714 13.36 80.9714 13.4567 81.4114 13.65C81.8514 13.8367 82.2647 14.1667 82.6514 14.64C82.7914 14.7467 82.9347 14.7933 83.0814 14.78C83.2347 14.76 83.3581 14.7067 83.4514 14.62C83.5247 14.5467 83.5814 14.45 83.6214 14.33C83.6614 14.2033 83.6447 14.08 83.5714 13.96C83.3981 13.6533 83.1814 13.3867 82.9214 13.16C82.6614 12.9267 82.3714 12.7333 82.0514 12.58C81.7314 12.42 81.3881 12.3 81.0214 12.22C80.6547 12.14 80.2781 12.1 79.8914 12.1C79.4114 12.1 78.9381 12.18 78.4714 12.34C78.0047 12.4933 77.5847 12.7167 77.2114 13.01C76.8447 13.2967 76.5481 13.65 76.3214 14.07C76.0947 14.4833 75.9814 14.95 75.9814 15.47C75.9814 15.9833 76.0947 16.43 76.3214 16.81C76.5481 17.1833 76.8447 17.5067 77.2114 17.78C77.5781 18.0467 77.9947 18.27 78.4614 18.45C78.9281 18.6233 79.4014 18.7667 79.8814 18.88ZM87.9542 15.59H89.2842C89.4642 15.59 89.6142 15.65 89.7342 15.77C89.8542 15.89 89.9142 16.0367 89.9142 16.21C89.9142 16.3967 89.8542 16.55 89.7342 16.67C89.6142 16.79 89.4642 16.85 89.2842 16.85H87.9542V24.38C87.9542 24.5533 87.8909 24.7 87.7642 24.82C87.6442 24.94 87.4976 25 87.3242 25C87.1509 25 87.0042 24.94 86.8842 24.82C86.7642 24.7 86.7042 24.5533 86.7042 24.38V16.85H85.6042C85.4309 16.85 85.2809 16.79 85.1542 16.67C85.0342 16.5433 84.9742 16.39 84.9742 16.21C84.9742 16.0367 85.0342 15.89 85.1542 15.77C85.2809 15.65 85.4309 15.59 85.6042 15.59H86.7042V12.82C86.7042 12.64 86.7642 12.4933 86.8842 12.38C87.0042 12.26 87.1509 12.2 87.3242 12.2C87.4976 12.2 87.6442 12.26 87.7642 12.38C87.8909 12.4933 87.9542 12.64 87.9542 12.82V15.59ZM90.9881 16.2C90.9881 16.02 91.0481 15.8733 91.1681 15.76C91.2881 15.64 91.4415 15.58 91.6281 15.58C91.8015 15.58 91.9448 15.64 92.0581 15.76C92.1781 15.8733 92.2381 16.02 92.2381 16.2V20.39V20.44C92.2448 21.5067 92.4815 22.3233 92.9481 22.89C93.4215 23.4567 94.0748 23.74 94.9081 23.74C95.3215 23.74 95.7081 23.6567 96.0681 23.49C96.4348 23.3233 96.7515 23.0933 97.0181 22.8C97.2915 22.5 97.5048 22.15 97.6581 21.75C97.8181 21.35 97.8981 20.9167 97.8981 20.45V16.22C97.8981 16.0467 97.9581 15.8967 98.0781 15.77C98.1981 15.6433 98.3448 15.58 98.5181 15.58C98.6915 15.58 98.8381 15.6433 98.9581 15.77C99.0848 15.8967 99.1481 16.0467 99.1481 16.22V24.37C99.1481 24.55 99.0848 24.7033 98.9581 24.83C98.8381 24.95 98.6915 25.01 98.5181 25.01C98.3381 25.01 98.1881 24.95 98.0681 24.83C97.9548 24.7033 97.8981 24.55 97.8981 24.37V23.3C97.5048 23.8133 97.0381 24.2267 96.4981 24.54C95.9581 24.8467 95.3815 25 94.7681 25C94.1881 25 93.6648 24.8933 93.1981 24.68C92.7381 24.46 92.3415 24.15 92.0081 23.75C91.6815 23.35 91.4281 22.8667 91.2481 22.3C91.0748 21.7333 90.9881 21.1 90.9881 20.4V20.39V16.2ZM110.097 24.38C110.097 24.5533 110.033 24.7 109.907 24.82C109.787 24.94 109.64 25 109.467 25C109.293 25 109.143 24.94 109.017 24.82C108.897 24.7 108.837 24.5533 108.837 24.38V23.58C108.397 24.0533 107.877 24.4267 107.277 24.7C106.683 24.9733 106.037 25.11 105.337 25.11C104.683 25.11 104.067 24.9867 103.487 24.74C102.907 24.4867 102.4 24.1433 101.967 23.71C101.533 23.2767 101.19 22.7733 100.937 22.2C100.69 21.62 100.567 21 100.567 20.34C100.567 19.68 100.69 19.0633 100.937 18.49C101.19 17.91 101.533 17.4067 101.967 16.98C102.4 16.5467 102.907 16.2067 103.487 15.96C104.067 15.7067 104.683 15.58 105.337 15.58C106.037 15.58 106.683 15.7167 107.277 15.99C107.877 16.2633 108.397 16.6367 108.837 17.11V12.82C108.837 12.64 108.897 12.4933 109.017 12.38C109.143 12.26 109.293 12.2 109.467 12.2C109.64 12.2 109.787 12.26 109.907 12.38C110.033 12.4933 110.097 12.64 110.097 12.82V24.38ZM101.837 20.34C101.837 20.82 101.927 21.2733 102.107 21.7C102.287 22.1267 102.533 22.5 102.847 22.82C103.167 23.1333 103.537 23.3833 103.957 23.57C104.383 23.7567 104.843 23.85 105.337 23.85C105.83 23.85 106.29 23.7567 106.717 23.57C107.143 23.3833 107.513 23.1333 107.827 22.82C108.14 22.5 108.387 22.1267 108.567 21.7C108.747 21.2733 108.837 20.82 108.837 20.34C108.837 19.8533 108.747 19.4 108.567 18.98C108.387 18.5533 108.14 18.1833 107.827 17.87C107.513 17.5567 107.143 17.31 106.717 17.13C106.29 16.9433 105.83 16.85 105.337 16.85C104.85 16.85 104.393 16.9433 103.967 17.13C103.54 17.31 103.17 17.5567 102.857 17.87C102.543 18.1833 102.293 18.5533 102.107 18.98C101.927 19.4 101.837 19.8533 101.837 20.34ZM111.983 13.43C111.983 13.63 112.057 13.8067 112.203 13.96C112.35 14.1067 112.527 14.18 112.733 14.18C112.947 14.18 113.13 14.1067 113.283 13.96C113.437 13.8067 113.513 13.63 113.513 13.43C113.513 13.21 113.437 13.0267 113.283 12.88C113.13 12.7333 112.947 12.66 112.733 12.66C112.527 12.66 112.35 12.7333 112.203 12.88C112.057 13.0267 111.983 13.21 111.983 13.43ZM113.373 16.21C113.373 16.0367 113.313 15.89 113.193 15.77C113.073 15.6433 112.927 15.58 112.753 15.58C112.58 15.58 112.43 15.6433 112.303 15.77C112.177 15.89 112.113 16.0367 112.113 16.21V24.36C112.113 24.54 112.173 24.6933 112.293 24.82C112.42 24.94 112.57 25 112.743 25C112.917 25 113.063 24.94 113.183 24.82C113.31 24.6933 113.373 24.54 113.373 24.36V16.21ZM116.045 20.36C116.045 19.8733 116.135 19.4167 116.315 18.99C116.502 18.5633 116.752 18.1933 117.065 17.88C117.385 17.56 117.759 17.31 118.185 17.13C118.612 16.9433 119.069 16.85 119.555 16.85C120.049 16.85 120.509 16.9433 120.935 17.13C121.362 17.31 121.732 17.56 122.045 17.88C122.365 18.1933 122.615 18.5633 122.795 18.99C122.975 19.4167 123.065 19.8733 123.065 20.36C123.065 20.84 122.975 21.2933 122.795 21.72C122.615 22.14 122.365 22.51 122.045 22.83C121.732 23.1433 121.362 23.3933 120.935 23.58C120.509 23.7667 120.049 23.86 119.555 23.86C119.062 23.86 118.602 23.7667 118.175 23.58C117.749 23.3933 117.379 23.1433 117.065 22.83C116.752 22.51 116.502 22.14 116.315 21.72C116.135 21.2933 116.045 20.84 116.045 20.36ZM114.785 20.36C114.785 21.0133 114.909 21.63 115.155 22.21C115.409 22.79 115.752 23.2967 116.185 23.73C116.619 24.1567 117.125 24.4967 117.705 24.75C118.285 24.9967 118.902 25.12 119.555 25.12C120.215 25.12 120.832 24.9967 121.405 24.75C121.985 24.4967 122.489 24.1567 122.915 23.73C123.349 23.2967 123.689 22.79 123.935 22.21C124.189 21.63 124.315 21.0133 124.315 20.36C124.315 19.7 124.189 19.08 123.935 18.5C123.689 17.9133 123.349 17.4067 122.915 16.98C122.489 16.5467 121.985 16.2067 121.405 15.96C120.832 15.7067 120.215 15.58 119.555 15.58C118.902 15.58 118.285 15.7067 117.705 15.96C117.125 16.2067 116.619 16.5467 116.185 16.98C115.752 17.4067 115.409 17.9133 115.155 18.5C114.909 19.08 114.785 19.7 114.785 20.36Z" fill="#3880FF"/>
<path d="M86.3875 4.70728C87.2253 0.592762 92.3735 -1.14134 95.9212 0.786081C98.7004 2.29801 99.8214 5.48632 99.0991 8.45824C101.015 9.02088 101.925 10.2327 101.982 12.2092C102.008 13.0084 102.173 15.5187 100.63 14.9041C99.7347 14.5492 100.154 13.3576 99.674 12.215C98.92 10.4059 97.5911 10.4838 95.9212 10.478C96.3979 8.44381 97.5737 7.09924 96.499 4.9987C94.3207 0.739915 88.6351 1.93445 88.1209 7.59263C85.6797 7.10212 83.5909 6.17015 81.1873 7.43105C78.9309 8.61405 78.1451 11.3667 76.6457 10.8127C74.7188 10.0971 77.6569 7.05596 78.2983 6.46734C81.1526 3.86764 82.99 4.43317 86.3875 4.70728Z" fill="#326DF7"/>
</svg>
