<svg width="98" height="11" viewBox="0 0 98 11" fill="none" xmlns="http://www.w3.org/2000/svg">
<path d="M8.56299 7.46094C8.62646 6.23584 8.6582 5.01074 8.6582 3.78564C8.6582 3.20166 8.65186 2.61768 8.62012 2.03369C8.61377 1.7417 8.62012 1.38623 8.5249 1.08154C8.42334 0.757812 8.125 0.326172 7.50293 0.326172C7.2998 0.326172 7.07129 0.376953 6.87451 0.497559C6.4873 0.719727 6.46191 1.10693 6.46191 1.36719C6.46191 1.65918 6.50635 1.95117 6.53809 2.24316C6.57617 2.61768 6.60791 2.99219 6.60791 3.3667C6.60791 4.34424 6.58887 5.32178 6.56982 6.29932C6.03027 5.53125 5.49072 4.76953 5.0083 3.98242C4.55127 3.23975 4.0498 2.51611 3.55469 1.79248C3.33252 1.46875 3.1167 1.13867 2.87549 0.776855C2.63428 0.421387 2.12012 0.230957 1.66309 0.370605C0.996582 0.599121 0.958496 1.08154 0.958496 1.48145C0.958496 1.73535 0.983887 1.98926 0.990234 2.23682C1.00293 2.79541 1.00293 3.34766 1.00293 3.8999C1.00293 4.8457 0.990234 5.78516 0.964844 6.73096C0.933105 7.5625 0.901367 8.39404 0.806152 9.22559C0.799805 9.26367 0.799805 9.29541 0.799805 9.3335C0.799805 9.77148 1.12988 10.311 1.88525 10.311C2.38037 10.311 2.62793 10.0381 2.75488 9.76514C2.94531 9.34619 2.93896 8.85742 2.95801 8.35596C3.02148 7.1499 3.05322 5.9375 3.05957 4.73145C3.76416 5.78516 4.4751 6.83252 5.19238 7.87988C5.49072 8.31152 5.78906 8.74951 6.09375 9.18115C6.24609 9.39062 6.38574 9.62549 6.58252 9.84131C6.75391 10.0254 6.96973 10.2285 7.39502 10.2285C7.85205 10.2285 8.18213 9.96826 8.32812 9.69531C8.48047 9.41602 8.46777 9.06055 8.48682 8.69238C8.51855 8.28613 8.54395 7.87354 8.56299 7.46094ZM11.7876 6.40723C11.8384 5.63916 12.4795 4.51562 13.5015 4.51562C14.0474 4.51562 14.3901 4.78223 14.606 5.17578C14.8218 5.57568 14.8916 6.07715 14.8916 6.44531C14.8916 7.35303 14.3838 8.43213 13.3301 8.43213C12.8857 8.43213 12.4922 8.15918 12.2065 7.8418C11.8384 7.44189 11.7495 6.94043 11.7876 6.40723ZM9.81348 6.31836C9.75635 7.28955 10.0103 8.27344 10.7275 9.0542C11.3242 9.70166 12.2192 10.2476 13.3491 10.2476C13.4634 10.2476 13.5903 10.2412 13.7046 10.2285C15.2661 10.0444 16.2246 8.95898 16.6118 7.93701C16.8022 7.4292 16.8848 6.90869 16.8848 6.38818C16.8848 5.46143 16.5928 4.36963 15.8057 3.60156C15.2153 3.03027 14.4854 2.70654 13.5015 2.70654C12.2954 2.70654 11.4004 3.25879 10.791 3.96338C10.1753 4.66162 9.86426 5.48682 9.81348 6.31836ZM29.1738 8.47656C29.4785 8.1084 29.8467 7.5498 29.8467 7.06738C29.8467 6.57861 29.3896 6.2041 28.8882 6.2041C28.5771 6.2041 28.2852 6.37549 28.0693 6.61035C27.7964 6.8833 27.6123 7.23877 27.3076 7.54346C26.9077 7.94336 26.3364 8.26074 25.7017 8.27344C25.2891 8.27344 24.9526 8.11475 24.6733 7.87988C24.0767 7.37842 23.8291 6.52783 23.8291 5.73438C23.8291 4.86475 24.083 3.47461 24.7812 2.82715C25.4224 2.23682 26.457 2.33203 27.187 2.78271C27.5044 2.97314 27.6758 3.18262 27.8408 3.47461C28.063 3.93799 28.4883 4.31885 29.0469 4.16016C29.6245 4.01416 29.8213 3.65869 29.8213 3.25879C29.8213 2.97314 29.7261 2.7002 29.6118 2.44629C29.0723 1.28467 27.4346 0.472168 25.835 0.472168C24.1084 0.472168 23.0356 1.49414 22.4771 2.56689C21.9756 3.53809 21.7471 4.7251 21.7471 5.75977C21.7471 6.82617 22.0708 8.00684 22.8706 8.9209C23.5054 9.63818 24.4385 10.2476 25.689 10.2476C27.2314 10.2476 28.4438 9.36523 29.1738 8.47656ZM32.7222 6.40723C32.7729 5.63916 33.4141 4.51562 34.436 4.51562C34.9819 4.51562 35.3247 4.78223 35.5405 5.17578C35.7563 5.57568 35.8262 6.07715 35.8262 6.44531C35.8262 7.35303 35.3184 8.43213 34.2646 8.43213C33.8203 8.43213 33.4268 8.15918 33.1411 7.8418C32.7729 7.44189 32.6841 6.94043 32.7222 6.40723ZM30.748 6.31836C30.6909 7.28955 30.9448 8.27344 31.6621 9.0542C32.2588 9.70166 33.1538 10.2476 34.2837 10.2476C34.3979 10.2476 34.5249 10.2412 34.6392 10.2285C36.2007 10.0444 37.1592 8.95898 37.5464 7.93701C37.7368 7.4292 37.8193 6.90869 37.8193 6.38818C37.8193 5.46143 37.5273 4.36963 36.7402 3.60156C36.1499 3.03027 35.4199 2.70654 34.436 2.70654C33.23 2.70654 32.335 3.25879 31.7256 3.96338C31.1099 4.66162 30.7988 5.48682 30.748 6.31836ZM45.4937 1.44336C45.4937 1.10059 45.2778 0.35791 44.4907 0.35791C43.7734 0.35791 43.564 0.878418 43.5322 1.22754C43.5132 1.50049 43.5132 1.77344 43.5068 2.04639L43.4688 3.31592C43.0308 3.05566 42.5103 2.87158 41.9199 2.87158C40.5996 2.87158 39.6411 3.83008 39.1968 4.59814C38.8286 5.23926 38.6445 5.91211 38.6445 6.61035C38.6445 7.44189 38.9111 8.25439 39.457 8.92725C39.9648 9.54932 40.7964 10.2158 41.9199 10.2158C42.6245 10.2158 43.1641 9.93018 43.6021 9.5874C43.7227 9.89209 44.002 10.1841 44.5352 10.1841C45.3223 10.1841 45.4873 9.66357 45.4873 9.27002C45.4873 9.04785 45.4492 8.81934 45.4302 8.59717C45.3794 7.86084 45.3794 7.11816 45.3794 6.37549C45.3794 4.74414 45.4238 3.10645 45.4937 1.46875V1.44336ZM43.4497 6.51514C43.4497 7.06104 43.2529 7.58154 42.8467 7.9751C42.5801 8.229 42.3071 8.3877 41.9199 8.3877C41.5645 8.3877 41.2217 8.07666 40.9868 7.78467C40.498 7.1499 40.4727 6.2041 40.917 5.47412C41.1265 5.15674 41.4819 4.70605 41.9199 4.70605C42.8276 4.70605 43.3989 5.63916 43.4497 6.51514ZM48.9722 5.02344C49.334 4.68701 49.7529 4.56641 50.2544 4.69971C50.6924 4.83301 51.0669 5.125 51.27 5.44873C50.7812 5.46143 50.3242 5.45508 49.8608 5.49316C49.4419 5.5249 48.9341 5.58838 48.5278 5.62012C48.6104 5.41699 48.8135 5.17578 48.9722 5.02344ZM47.9756 9.7207C48.5469 10.0444 49.2134 10.2539 49.9561 10.2539C50.2227 10.2539 50.5146 10.2031 50.7495 10.146C51.5811 9.95557 52.5142 9.54297 52.9648 8.92725C53.0918 8.74951 53.1616 8.55908 53.1616 8.35596C53.1616 8.04492 52.9268 7.49268 52.2793 7.49268C51.8477 7.49268 51.5239 7.75928 51.1621 7.99414C50.832 8.22266 50.4829 8.40674 49.9561 8.40674C49.626 8.40674 49.2769 8.31152 49.0103 8.15918C48.6675 7.9624 48.5088 7.67676 48.4326 7.34033C49.1689 7.28955 49.8989 7.20703 50.6353 7.17529C51.8096 7.10547 52.8188 7.07373 53.1616 6.53418C53.3076 6.30566 53.3647 6.05176 53.3647 5.81055C53.3647 5.06787 52.9395 4.3252 52.3872 3.81104C51.7842 3.25879 50.832 2.80176 49.8291 2.80176C49.2959 2.80176 48.7817 2.96045 48.3691 3.16992C46.833 3.96973 46.4077 5.5376 46.4077 6.80078C46.4077 7.83545 46.7695 9.02881 47.9756 9.7207ZM59.0713 6.63574C58.0366 6.45166 57.7065 7.47363 58.0176 8.29248C58.3477 9.18115 59.0269 9.94287 60.3218 10.1777C60.6455 10.2349 60.9756 10.2476 61.2993 10.2476C62.1118 10.2476 63.1782 10.127 63.9272 9.82861C65.1587 9.33984 65.6919 8.3877 65.6919 7.39746C65.6919 6.4834 65.3745 5.39795 64.2954 4.79492C63.7368 4.48389 63.1211 4.35059 62.4863 4.25537C61.8896 4.15381 61.2739 4.09033 60.6582 3.80469C60.29 3.6333 60.0552 3.41748 60.0552 3.15723C60.0552 2.56055 61.1216 2.22412 61.9341 2.22412C62.2578 2.22412 62.5942 2.28125 62.8608 2.53516C63.1719 2.84619 63.2798 3.29688 63.5972 3.63965C63.8955 3.95068 64.3018 4.00781 64.7144 3.8999C65.2729 3.72852 65.4951 3.29688 65.3174 2.70654C65.127 2.09082 64.6001 1.37988 64.0098 0.935547C63.4385 0.503906 62.7783 0.294434 61.9722 0.294434C61.5215 0.294434 61.0708 0.35791 60.6455 0.446777C59.7759 0.630859 59.0713 0.992676 58.5889 1.58301C58.1953 2.05908 57.9858 2.56055 57.9858 3.13184C57.9858 4.01416 58.5127 4.89648 59.4712 5.42334C60.2012 5.82324 61.0645 6.00732 61.9023 6.14697C63.0703 6.34375 63.6289 6.48975 63.6289 7.39746C63.6289 7.73389 63.4956 7.89893 63.0957 8.06396C62.6006 8.27344 61.7627 8.32422 61.147 8.32422C60.3027 8.32422 60.0552 8.01953 59.8838 7.37842C59.7949 7.04834 59.6045 6.7373 59.0713 6.63574ZM67.1963 1.79883C67.1963 2.13525 67.2534 2.48438 67.2661 2.87158C66.5425 2.82715 65.9648 3.02393 65.9648 3.74121C65.9648 4.13477 66.1616 4.53467 66.8154 4.61719C66.9614 4.63623 67.1138 4.64258 67.2598 4.65527C67.2407 5.48682 67.2344 6.31201 67.2344 7.14355C67.2344 7.33398 67.228 7.51807 67.228 7.7085C67.228 8.32422 67.2407 9.28271 67.939 9.81592C68.25 10.0508 68.7007 10.1777 69.126 10.1777C69.875 10.1777 70.6938 9.94922 70.6938 9.20654C70.6938 8.83838 70.4146 8.26074 69.7036 8.26074C69.6274 8.26074 69.5005 8.27979 69.4307 8.29248C69.2085 8.33057 69.1641 8.28613 69.1641 7.86084C69.1641 7.62598 69.1895 7.39111 69.1895 6.65479C69.1895 5.98193 69.2085 5.30908 69.2212 4.63623C69.3735 4.66797 69.5322 4.68066 69.7163 4.68066C70.4019 4.68066 70.7129 4.16016 70.7129 3.7793C70.7129 3.27148 70.4463 3.04297 70.0464 2.94141C69.7607 2.87158 69.437 2.87158 69.2085 2.87158C69.2085 2.63037 69.2021 2.39551 69.1895 2.1543C69.1514 1.44336 68.9355 0.884766 68.2119 0.884766C67.5137 0.884766 67.1963 1.39893 67.1963 1.79883ZM77.9746 3.74756C77.9746 3.15088 77.5684 2.74463 76.9146 2.74463C76.4385 2.74463 76.2227 3.05566 76.1211 3.31592C76.0322 3.55713 76.0068 3.81104 75.9878 4.08398C75.937 4.8584 75.8926 5.63281 75.8926 6.40723C75.8926 6.896 75.9751 7.44824 75.5688 7.84814C75.2324 8.17822 74.6992 8.29248 74.2104 8.29248C73.6011 8.29248 73.5693 7.72754 73.5503 7.20703C73.5059 6.27393 73.4614 5.32178 73.5884 4.29346C73.6138 4.10938 73.6582 3.93164 73.6582 3.74121C73.6582 3.37939 73.5376 2.96045 72.9155 2.8208C72.4268 2.6875 71.8682 3.00488 71.7412 3.51904C71.5825 4.20459 71.5571 4.94092 71.5571 5.72168C71.5571 6.85791 71.4937 8.76855 72.5283 9.62549C72.9282 9.96191 73.5122 10.127 74.0898 10.127C74.731 10.127 75.5244 9.89844 76.0894 9.60645C76.1973 9.91113 76.4766 10.2285 77.0034 10.2285C77.4224 10.2285 77.6763 10.0571 77.8096 9.83496C78.0444 9.4668 77.9619 9.02246 77.9175 8.60352C77.8604 7.95605 77.854 7.2959 77.854 6.64209C77.854 5.67725 77.8984 4.7124 77.9746 3.74756ZM86.0298 1.44336C86.0298 1.10059 85.814 0.35791 85.0269 0.35791C84.3096 0.35791 84.1001 0.878418 84.0684 1.22754C84.0493 1.50049 84.0493 1.77344 84.043 2.04639L84.0049 3.31592C83.5669 3.05566 83.0464 2.87158 82.4561 2.87158C81.1357 2.87158 80.1772 3.83008 79.7329 4.59814C79.3647 5.23926 79.1807 5.91211 79.1807 6.61035C79.1807 7.44189 79.4473 8.25439 79.9932 8.92725C80.501 9.54932 81.3325 10.2158 82.4561 10.2158C83.1606 10.2158 83.7002 9.93018 84.1382 9.5874C84.2588 9.89209 84.5381 10.1841 85.0713 10.1841C85.8584 10.1841 86.0234 9.66357 86.0234 9.27002C86.0234 9.04785 85.9854 8.81934 85.9663 8.59717C85.9155 7.86084 85.9155 7.11816 85.9155 6.37549C85.9155 4.74414 85.96 3.10645 86.0298 1.46875V1.44336ZM83.9858 6.51514C83.9858 7.06104 83.7891 7.58154 83.3828 7.9751C83.1162 8.229 82.8433 8.3877 82.4561 8.3877C82.1006 8.3877 81.7578 8.07666 81.5229 7.78467C81.0342 7.1499 81.0088 6.2041 81.4531 5.47412C81.6626 5.15674 82.0181 4.70605 82.4561 4.70605C83.3638 4.70605 83.9351 5.63916 83.9858 6.51514ZM88.6895 0.25C87.896 0.25 87.4834 0.865723 87.4834 1.33545C87.4834 1.82422 87.8643 2.40186 88.6895 2.40186C89.4829 2.40186 89.8828 1.80518 89.8828 1.33545C89.8828 0.865723 89.4956 0.25 88.6895 0.25ZM87.4961 9.32715C87.4961 9.07959 87.5151 8.83203 87.5151 8.58447C87.5215 8.0957 87.5215 6.78174 87.5215 5.88672C87.5215 5.13135 87.5469 4.37598 87.604 3.62695C87.623 3.30322 87.8262 2.78271 88.5117 2.78271C89.832 2.78271 89.5337 4.02686 89.5083 4.48389C89.4766 4.92188 89.4575 5.36621 89.4575 5.81055C89.4575 6.81348 89.4639 7.7085 89.4702 8.60352C89.4702 9.49854 89.5273 10.2412 88.4863 10.2412C87.8071 10.2412 87.4961 9.68896 87.4961 9.32715ZM92.7964 6.40723C92.8472 5.63916 93.4883 4.51562 94.5103 4.51562C95.0562 4.51562 95.3989 4.78223 95.6147 5.17578C95.8306 5.57568 95.9004 6.07715 95.9004 6.44531C95.9004 7.35303 95.3926 8.43213 94.3389 8.43213C93.8945 8.43213 93.501 8.15918 93.2153 7.8418C92.8472 7.44189 92.7583 6.94043 92.7964 6.40723ZM90.8223 6.31836C90.7651 7.28955 91.019 8.27344 91.7363 9.0542C92.333 9.70166 93.228 10.2476 94.3579 10.2476C94.4722 10.2476 94.5991 10.2412 94.7134 10.2285C96.2749 10.0444 97.2334 8.95898 97.6206 7.93701C97.811 7.4292 97.8936 6.90869 97.8936 6.38818C97.8936 5.46143 97.6016 4.36963 96.8145 3.60156C96.2241 3.03027 95.4941 2.70654 94.5103 2.70654C93.3042 2.70654 92.4092 3.25879 91.7998 3.96338C91.1841 4.66162 90.873 5.48682 90.8223 6.31836Z" fill="url(#paint0_linear_2_7)"/>
<defs>
<linearGradient id="paint0_linear_2_7" x1="3.33708" y1="9.81819" x2="103.449" y2="9.81819" gradientUnits="userSpaceOnUse">
<stop stop-color="#00D0FF" stop-opacity="0.73"/>
<stop offset="1" stop-color="#FFC45E"/>
</linearGradient>
</defs>
</svg>
