<?xml version="1.0" encoding="UTF-8"?>
<svg width="22px" height="22px" viewBox="0 0 22 22" version="1.1" xmlns="http://www.w3.org/2000/svg" xmlns:xlink="http://www.w3.org/1999/xlink">
    <!-- Generator: Sketch 54.1 (76490) - https://sketchapp.com -->
    <title>Group 11</title>
    <desc>Created with Sketch.</desc>
    <g id="Form" stroke="none" stroke-width="1" fill="none" fill-rule="evenodd">
        <g id="01a_form_admin_view" transform="translate(-151.000000, -938.000000)">
            <g id="Functions" transform="translate(0.000000, 189.000000)">
                <rect id="bg" fill="#F8FAFB" x="0" y="0" width="414" height="1026"></rect>
                <g id="c" transform="translate(107.436854, 644.000000)">
                    <g id="Group-11" transform="translate(43.563146, 105.000000)">
                        <rect id="Rectangle" stroke="#9B9B9B" x="1.5" y="1.5" width="19" height="19"></rect>
                        <path d="M16.1402448,12.7373134 C16.1402448,12.9350448 15.9797672,13.0955224 15.7820358,13.0955224 L9.11934925,13.0955224 C8.92161791,13.0955224 8.7611403,12.9350448 8.7611403,12.7373134 L8.7611403,6.07462687 C8.7611403,5.87671642 8.92161791,5.71641791 9.11934925,5.71641791 L15.7820358,5.71641791 C15.9797672,5.71641791 16.1402448,5.87671642 16.1402448,6.07462687 L16.1402448,12.7373134 Z M16.8566627,6.07462687 C16.8566627,5.48107463 16.3755881,5 15.7820358,5 L9.11934925,5 C8.52597612,5 8.04472239,5.48107463 8.04472239,6.07462687 L8.04472239,12.7373134 C8.04472239,13.3308657 8.52597612,13.8119403 9.11934925,13.8119403 L15.7820358,13.8119403 C16.3755881,13.8119403 16.8566627,13.3308657 16.8566627,12.7373134 L16.8566627,6.07462687 Z" id="Fill-1" fill="#9B9B9B"></path>
                        <path d="M6.07462687,8.76115821 L6.46865672,8.76115821 C6.66656716,8.76115821 6.82686567,8.6006806 6.82686567,8.40294925 C6.82686567,8.20521791 6.66656716,8.0447403 6.46865672,8.0447403 L6.07462687,8.0447403 C5.48125373,8.0447403 5,8.52599403 5,9.11936716 L5,15.7820537 C5,16.375606 5.48125373,16.8566806 6.07462687,16.8566806 L12.7373134,16.8566806 C13.3308657,16.8566806 13.8119403,16.375606 13.8119403,15.7820537 L13.8119403,15.352203 C13.8119403,15.1544716 13.6514627,14.993994 13.4537313,14.993994 C13.2558209,14.993994 13.0955224,15.1544716 13.0955224,15.352203 L13.0955224,15.7820537 C13.0955224,15.9797851 12.9350448,16.1402627 12.7373134,16.1402627 L6.07462687,16.1402627 C5.87689552,16.1402627 5.71641791,15.9797851 5.71641791,15.7820537 L5.71641791,9.11936716 C5.71641791,8.92163582 5.87689552,8.76115821 6.07462687,8.76115821" id="Fill-3" fill="#9B9B9B"></path>
                        <rect id="Rectangle" fill="#048EAE" x="0" y="0" width="3" height="3"></rect>
                        <rect id="Rectangle-Copy-3" fill="#048EAE" x="0" y="19" width="3" height="3"></rect>
                        <rect id="Rectangle-Copy-2" fill="#048EAE" x="19" y="0" width="3" height="3"></rect>
                        <rect id="Rectangle-Copy-4" fill="#048EAE" x="19" y="19" width="3" height="3"></rect>
                    </g>
                </g>
            </g>
        </g>
    </g>
</svg>