<svg id="Capa_1" enable-background="new 0 0 512 512" height="512" viewBox="0 0 512 512" width="512" xmlns="http://www.w3.org/2000/svg">
	<g>
		<path fill="#9B9B9B" d="m446.604 124.392-119.996-119.997c-2.768-2.769-6.604-4.395-10.608-4.395h-210c-24.813 0-45 20.187-45 45v422c0 24.813 20.187 45 45 45h300c24.813 0 45-20.187 45-45v-332c0-4.082-1.735-7.949-4.396-10.608zm-115.604-73.179 68.787 68.787h-53.787c-8.271 0-15-6.729-15-15zm75 430.787h-300c-8.271 0-15-6.729-15-15v-422c0-8.271 6.729-15 15-15h195v75c0 24.813 20.187 45 45 45h75v317c0 8.271-6.729 15-15 15z" />
		<path fill="#048EAE" d="m346 212h-180c-8.284 0-15 6.716-15 15v180c0 8.284 6.716 15 15 15h180c8.284 0 15-6.716 15-15v-180c0-8.284-6.716-15-15-15zm-165 90h60v30h-60zm90 0h60v30h-60zm60-30h-60v-30h60zm-90-30v30h-60v-30zm-60 120h60v30h-60zm90 30v-30h60v30z" />
	</g>
</svg>
