<?xml version="1.0" encoding="UTF-8"?>
<svg width="18px" height="21px" viewBox="0 0 18 21" version="1.1" xmlns="http://www.w3.org/2000/svg" xmlns:xlink="http://www.w3.org/1999/xlink">
    <!-- Generator: Sketch 54.1 (76490) - https://sketchapp.com -->
    <title>Mask</title>
    <desc>Created with Sketch.</desc>
    <g id="Form" stroke="none" stroke-width="1" fill="none" fill-rule="evenodd">
        <g id="01a_form_admin_view" transform="translate(-246.000000, -683.000000)">
            <g id="Functions" transform="translate(0.000000, 189.000000)">
                <rect id="bg" fill="#F8FAFB" x="0" y="0" width="414" height="1026"></rect>
                <g id="b" transform="translate(107.436854, 376.000000)" fill="#9B9B9B">
                    <path d="M152.563146,134 C152.563146,134.576923 152.17853,135 151.563146,135 C150.986223,135 150.563146,134.538462 150.563146,134 C150.563146,133.461538 150.986223,133 151.563146,133 C152.17853,133 152.563146,133.423077 152.563146,134 L152.563146,134 Z M152.563146,130 C152.563146,130.576923 152.17853,131 151.563146,131 C150.986223,131 150.563146,130.538462 150.563146,130 C150.563146,129.461538 150.986223,129 151.563146,129 C152.17853,129 152.563146,129.423077 152.563146,130 L152.563146,130 Z M148.563146,134 C148.563146,134.576923 148.17853,135 147.563146,135 C146.986223,135 146.563146,134.538462 146.563146,134 C146.563146,133.461538 146.986223,133 147.563146,133 C148.17853,133 148.563146,133.423077 148.563146,134 L148.563146,134 Z M148.563146,130 C148.563146,130.576923 148.17853,131 147.563146,131 C146.986223,131 146.563146,130.538462 146.563146,130 C146.563146,129.461538 146.986223,129 147.563146,129 C148.17853,129 148.563146,129.423077 148.563146,130 L148.563146,130 Z M143.563146,134 C143.563146,134.576923 143.17853,135 142.563146,135 C141.986223,135 141.563146,134.538462 141.563146,134 C141.563146,133.461538 141.986223,133 142.563146,133 C143.17853,133 143.563146,133.423077 143.563146,134 L143.563146,134 Z M143.563146,130 C143.563146,130.576923 143.17853,131 142.563146,131 C141.986223,131 141.563146,130.538462 141.563146,130 C141.563146,129.461538 141.986223,129 142.563146,129 C143.17853,129 143.563146,129.423077 143.563146,130 L143.563146,130 Z M154.411146,138 C155.243146,138 155.563146,137.634349 155.563146,136.770083 L155.563146,126 L139.563146,126 L139.563146,136.770083 C139.563146,137.634349 139.883146,138 140.715146,138 L154.411146,138 Z M139.563146,125 L155.563146,125 L155.563146,123.037383 C155.563146,122.308411 155.243146,122 154.411146,122 L140.715146,122 C139.883146,122 139.563146,122.308411 139.563146,123.037383 L139.563146,125 Z M154.32104,139 L140.805251,139 C139.289461,139 138.563146,138.248834 138.563146,136.681182 L138.563146,122.702955 C138.563146,121.135303 139.289461,120.384137 140.805251,120.384137 L141.942093,120.384137 L141.942093,118 L143.047356,118 L143.047356,120.384137 L152.110514,120.384137 L152.110514,118 L153.215777,118 L153.215777,120.384137 L154.32104,120.384137 C155.83683,120.384137 156.563146,121.135303 156.563146,122.702955 L156.563146,136.681182 C156.563146,138.248834 155.83683,139 154.32104,139 L154.32104,139 Z" id="Mask"></path>
                </g>
            </g>
        </g>
    </g>
</svg>