<?xml version="1.0" encoding="UTF-8"?>
<svg width="24px" height="20px" viewBox="0 0 24 20" version="1.1" xmlns="http://www.w3.org/2000/svg" xmlns:xlink="http://www.w3.org/1999/xlink">
    <!-- Generator: Sketch 54.1 (76490) - https://sketchapp.com -->
    <title>Group 8 Copy 3</title>
    <desc>Created with Sketch.</desc>
    <defs>
        <polygon id="path-1" points="0 0.328301887 23.3608329 0.328301887 23.3608329 19.9999245 0 19.9999245"></polygon>
    </defs>
    <g id="Form" stroke="none" stroke-width="1" fill="none" fill-rule="evenodd">
        <g id="01a_form_admin_view" transform="translate(-333.000000, -684.000000)">
            <g id="Functions" transform="translate(0.000000, 189.000000)">
                <rect id="bg" fill="#F8FAFB" x="0" y="0" width="414" height="1026"></rect>
                <g id="b" transform="translate(107.436854, 376.000000)">
                    <g id="Group-8-Copy-3" transform="translate(225.563146, 119.000000)">
                        <g id="Group-3">
                            <mask id="mask-2" fill="white">
                                <use xlink:href="#path-1"></use>
                            </mask>
                            <g id="Clip-2"></g>
                            <path d="M1.88189266,1.83766038 C1.65297962,1.83766038 1.46735462,2.02860377 1.46735462,2.26407547 L1.46735462,18.0640755 C1.46735462,18.2999245 1.65297962,18.4904906 1.88189266,18.4904906 L21.4789035,18.4904906 C21.7063492,18.4886038 21.8897731,18.2984151 21.8897731,18.0640755 L21.8897731,2.26407547 C21.8897731,2.03011321 21.7063492,1.83992453 21.4789035,1.83766038 L1.88189266,1.83766038 Z M21.4789035,19.9999245 L1.88189266,19.9999245 C0.842612772,19.9999245 -3.66847826e-05,19.1331321 -3.66847826e-05,18.0640755 L-3.66847826e-05,2.26407547 C-3.66847826e-05,1.19501887 0.842612772,0.328226415 1.88189266,0.328226415 L21.4789035,0.328226415 C22.5181834,0.328226415 23.3608329,1.19501887 23.3608329,2.26407547 L23.3608329,18.0640755 C23.3608329,19.1331321 22.5181834,19.9999245 21.4789035,19.9999245 L21.4789035,19.9999245 Z" id="Fill-1" fill="#9B9B9B" mask="url(#mask-2)"></path>
                        </g>
                        <path d="M4.10926553,16.5214893 L18.4976092,16.5214893 C18.8373795,16.5311838 19.1207035,16.2575014 19.1301719,15.9092461 C19.1341778,15.7690491 19.0922983,15.6314622 19.0110885,15.5184843 L17.0263638,12.7592881 C16.8271629,12.4770298 16.4425998,12.4136429 16.1669233,12.6175997 C16.142524,12.6354972 16.1192171,12.6556318 16.0977311,12.677258 L14.0583809,14.6646249 L9.32417522,8.08356927 C9.12315356,7.80280242 8.73786205,7.7423984 8.46400646,7.94821951 C8.40355429,7.9933361 8.35220637,8.04926575 8.31178353,8.11339842 L3.57757781,15.5483134 C3.39257962,15.8402662 3.47342529,16.2302823 3.75857014,16.4200702 C3.86272266,16.4890501 3.98508367,16.5248451 4.10926553,16.5214893" id="Fill-4" fill="#0CBBE7"></path>
                        <path d="M16.0869565,3.47826087 C17.2875577,3.47826087 18.2608696,4.4515727 18.2608696,5.65217391 C18.2608696,6.85277513 17.2875577,7.82608696 16.0869565,7.82608696 C14.8863553,7.82608696 13.9130435,6.85277513 13.9130435,5.65217391 C13.9130435,4.4515727 14.8863553,3.47826087 16.0869565,3.47826087" id="Fill-6" fill="#9B9B9B"></path>
                    </g>
                </g>
            </g>
        </g>
    </g>
</svg>