<?xml version="1.0" encoding="UTF-8"?>
<svg width="33px" height="19px" viewBox="0 0 33 19" version="1.1" xmlns="http://www.w3.org/2000/svg" xmlns:xlink="http://www.w3.org/1999/xlink">
    <!-- Generator: Sketch 54.1 (76490) - https://sketchapp.com -->
    <title>Group 8</title>
    <desc>Created with Sketch.</desc>
    <g id="Form" stroke="none" stroke-width="1" fill="none" fill-rule="evenodd">
        <g id="01a_form_admin_view" transform="translate(-238.000000, -467.000000)">
            <g id="Functions" transform="translate(0.000000, 189.000000)">
                <rect id="bg" fill="#F8FAFB" x="0" y="0" width="414" height="1026"></rect>
                <g id="a" transform="translate(107.436854, 109.000000)">
                    <g id="Group-8" transform="translate(130.563146, 169.000000)">
                        <path d="M11.0305556,12.9797688 L4.71041667,12.9797688 L3.95833333,14.6965318 C3.71203581,15.268789 3.58888889,15.7413276 3.58888889,16.1141618 C3.58888889,16.608384 3.79120168,16.9725422 4.19583333,17.2066474 C4.43333452,17.3453764 5.01828238,17.4494216 5.95069444,17.5187861 L5.95069444,18 L0,18 L0,17.5187861 C0.64213284,17.4234099 1.16990534,17.1611293 1.58333333,16.7319364 C1.99676133,16.3027435 2.50694141,15.4161917 3.11388889,14.0722543 L9.51319444,0 L9.76388889,0 L16.2159722,14.4624277 C16.831716,15.8323768 17.337498,16.6950849 17.7333333,17.050578 C18.0324089,17.3193655 18.4546269,17.4754333 19,17.5187861 L19,18 L10.3444444,18 L10.3444444,17.5187861 L10.7006944,17.5187861 C11.3956053,17.5187861 11.8837949,17.4234114 12.1652778,17.232659 C12.3587973,17.0939299 12.4555556,16.89451 12.4555556,16.6343931 C12.4555556,16.4783229 12.4291669,16.3179199 12.3763889,16.1531792 C12.3587962,16.0751441 12.2268531,15.7500029 11.9805556,15.1777457 L11.0305556,12.9797688 Z M11,12 L8.53658537,6 L6,12 L11,12 Z" id="A" fill="#0CBBE7" fill-rule="nonzero"></path>
                        <path d="M22.2608696,18 L32,18" id="Line-4" stroke="#979797" stroke-width="2" stroke-linecap="square"></path>
                    </g>
                </g>
            </g>
        </g>
    </g>
</svg>