
<svg viewBox="0 0 1000 1000" width="24px" height="24px" version="1.1" xmlns="http://www.w3.org/2000/svg" xmlns:xlink="http://www.w3.org/1999/xlink">
    <defs></defs>
        <g id="Group-5" transform="translate(0, 0)">
            <path d="M448 256c0-106-86-192-192-192S64 150 64 256s86 192 192 192 192-86 192-192z" fill="none"
        stroke="#9B9B9B" stroke-miterlimit="10" stroke-width="32" />
    <circle cx="256" cy="256" r="144" fill="#326DF7" />
        </g>
        <g id="Group-5-Copy-6" transform="translate(0, 500)">
           <path d="M448 256c0-106-86-192-192-192S64 150 64 256s86 192 192 192 192-86 192-192z" fill="none"
        stroke="#9B9B9B" stroke-miterlimit="10" stroke-width="32" />
    <circle cx="256" cy="256" r="144" fill="#326DF7" />
        </g>
        <g id="Group-5-Copy-4" transform="translate(500, 0)">
            <path d="M448 256c0-106-86-192-192-192S64 150 64 256s86 192 192 192 192-86 192-192z" fill="none"
        stroke="#9B9B9B" stroke-miterlimit="10" stroke-width="32" />
    <circle cx="256" cy="256" r="144" fill="#326DF7" />
        </g>
        <g id="Group-5-Copy-5" transform="translate(500, 500)">
            <path d="M448 256c0-106-86-192-192-192S64 150 64 256s86 192 192 192 192-86 192-192z" fill="none"
        stroke="#9B9B9B" stroke-miterlimit="10" stroke-width="32" />
    <circle cx="256" cy="256" r="144" fill="#326DF7" />
        </g>
</svg>