
<svg width="19px" height="21px" viewBox="0 0 19 21" version="1.1" xmlns="http://www.w3.org/2000/svg" xmlns:xlink="http://www.w3.org/1999/xlink">
    <!-- Generator: Sketch 51.3 (57544) - http://www.bohemiancoding.com/sketch -->
    <desc>Created with Sketch.</desc>
    <defs></defs>
    <g id="Form" stroke="none" stroke-width="1" fill="none" fill-rule="evenodd">
        <g id="02b_form_admin_edit-" transform="translate(-151.000000, -608.000000)">
            <g id="Functions" transform="translate(0.000000, 189.000000)">
                <g id="b" transform="translate(107.436854, 376.000000)">
                    <g id="Group-13" transform="translate(43.000000, 43.000000)">
                        <g id="Group-5" transform="translate(0.563146, 0.000000)">
                            <rect id="Rectangle-Copy" stroke="#9B9B9B" x="0.5" y="0.5" width="8" height="9" rx="3"></rect>
                            <path d="M3.44225936,8.3828404 L3.32597936,8.49912041 L1,6.17314105 L1.7766636,5.39647745 L3.37176128,6.99157512 L7.3633364,3 L8.14,3.7766636 L3.48804128,8.42862232 L3.44225936,8.3828404 Z" id="Check-Icon" fill="#048EAE"></path>
                        </g>
                        <g id="Group-5-Copy-6" transform="translate(0.563146, 11.000000)">
                            <rect id="Rectangle-Copy" stroke="#9B9B9B" x="0.5" y="0.5" width="8" height="9" rx="3"></rect>
                            <path d="M3.44225936,8.3828404 L3.32597936,8.49912041 L1,6.17314105 L1.7766636,5.39647745 L3.37176128,6.99157512 L7.3633364,3 L8.14,3.7766636 L3.48804128,8.42862232 L3.44225936,8.3828404 Z" id="Check-Icon" fill="#048EAE"></path>
                        </g>
                        <g id="Group-5-Copy-4" transform="translate(10.563146, 0.000000)">
                            <rect id="Rectangle-Copy" stroke="#9B9B9B" x="0.5" y="0.5" width="8" height="9" rx="3"></rect>
                            <path d="M3.44225936,8.3828404 L3.32597936,8.49912041 L1,6.17314105 L1.7766636,5.39647745 L3.37176128,6.99157512 L7.3633364,3 L8.14,3.7766636 L3.48804128,8.42862232 L3.44225936,8.3828404 Z" id="Check-Icon" fill="#048EAE"></path>
                        </g>
                        <g id="Group-5-Copy-5" transform="translate(10.563146, 11.000000)">
                            <rect id="Rectangle-Copy" stroke="#9B9B9B" x="0.5" y="0.5" width="8" height="9" rx="3"></rect>
                            <path d="M3.44225936,8.3828404 L3.32597936,8.49912041 L1,6.17314105 L1.7766636,5.39647745 L3.37176128,6.99157512 L7.3633364,3 L8.14,3.7766636 L3.48804128,8.42862232 L3.44225936,8.3828404 Z" id="Check-Icon" fill="#048EAE"></path>
                        </g>
                    </g>
                </g>
            </g>
        </g>
    </g>
</svg>