<?xml version="1.0" encoding="UTF-8"?>
<svg width="20px" height="20px" viewBox="0 0 20 20" version="1.1" xmlns="http://www.w3.org/2000/svg" xmlns:xlink="http://www.w3.org/1999/xlink">
    <!-- Generator: Sketch 54.1 (76490) - https://sketchapp.com -->
    <title>Group 3</title>
    <desc>Created with Sketch.</desc>
    <defs>
        <polygon id="path-1" points="0 0 19.999 0 19.999 19.9998 0 19.9998"></polygon>
    </defs>
    <g id="Homepage" stroke="none" stroke-width="1" fill="none" fill-rule="evenodd">
        <g id="02c_global_action" transform="translate(-444.000000, -294.000000)">
            <g id="Projects" transform="translate(194.000000, 244.000000)">
                <circle id="Oval-Copy" fill="#F2F2F2" cx="260" cy="60" r="32"></circle>
                <g id="Group-3" transform="translate(250.000000, 50.000000)">
                    <mask id="mask-2" fill="white">
                        <use xlink:href="#path-1"></use>
                    </mask>
                    <g id="Clip-2"></g>
                    <path d="M15.728,1.2718 L12.999,3.9998 L6.165,3.1448 C5.415,3.0508 4.66,3.2428 4.046,3.6818 L2.444,4.8278 L9,7.9998 L5,12.4998 L1.915,12.4998 C1.65,12.4998 1.395,12.6048 1.207,12.7928 L0,13.9998 L4.5,15.4998 L6,19.9998 L7.207,18.7928 C7.395,18.6048 7.5,18.3508 7.5,18.0848 L7.5,14.9998 L11.999,10.9998 L15.172,17.5568 L16.318,15.9538 C16.757,15.3398 16.949,14.5848 16.855,13.8348 L15.999,6.9998 L18.728,4.2718 C19.541,3.4578 19.999,2.3518 19.999,1.1998 C19.999,0.5368 19.463,-0.0002 18.8,-0.0002 C17.648,-0.0002 16.541,0.4578 15.728,1.2718" id="Fill-1" fill="#000000" mask="url(#mask-2)"></path>
                </g>
            </g>
        </g>
    </g>
</svg>