<?xml version="1.0" encoding="UTF-8"?>
<svg width="20px" height="20px" viewBox="0 0 20 20" version="1.1" xmlns="http://www.w3.org/2000/svg" xmlns:xlink="http://www.w3.org/1999/xlink">
    <!-- Generator: Sketch 54.1 (76490) - https://sketchapp.com -->
    <title>Group 3 Copy</title>
    <desc>Created with Sketch.</desc>
    <defs>
        <polygon id="path-1" points="0 3.16619895e-05 19.969 3.16619895e-05 19.969 19.8946 0 19.8946"></polygon>
    </defs>
    <g id="Homepage" stroke="none" stroke-width="1" fill="none" fill-rule="evenodd">
        <g id="02c_global_action" transform="translate(-632.000000, -294.000000)">
            <g id="Projects" transform="translate(194.000000, 244.000000)">
                <circle id="Oval-Copy-2" fill="#F2F2F2" cx="448" cy="60" r="32"></circle>
                <g id="Group-3-Copy" transform="translate(438.000000, 50.000000)">
                    <mask id="mask-2" fill="white">
                        <use xlink:href="#path-1"></use>
                    </mask>
                    <g id="Clip-2"></g>
                    <path d="M17.2631,5.1633 C16.5631,4.1633 15.7631,3.2633 14.7631,2.6633 C16.5631,1.8633 17.5631,1.8633 17.8641,2.1633 C18.0631,2.4633 18.0631,3.5633 17.2631,5.1633 M9.9631,16.6633 L9.9631,16.6633 C11.2631,15.9633 15.8641,11.2633 16.6631,9.8633 L16.6631,9.9633 C16.6631,13.6633 13.6631,16.6633 9.9631,16.6633 M7.2631,16.0633 C4.8631,15.0633 3.2631,12.6633 3.2631,9.9633 C3.2631,6.2633 6.2631,3.2633 9.9631,3.2633 C12.6631,3.2633 15.0631,4.8633 16.0631,7.2633 C15.3641,9.1633 9.0631,15.3633 7.2631,16.0633 M2.1631,17.7633 C1.8631,17.4633 1.8631,16.4633 2.6631,14.6633 C3.3631,15.6633 4.1631,16.5633 5.1631,17.1633 C3.5631,18.0633 2.4631,18.0633 2.1631,17.7633 M19.1631,0.7633 C17.8641,-0.5367 15.5631,-0.1367 12.4631,1.6633 C11.6631,1.4633 10.8631,1.2633 9.9631,1.2633 C5.1631,1.2633 1.2631,5.1633 1.2631,9.9633 C1.2631,10.8633 1.3631,11.6633 1.6631,12.4633 C-0.1369,15.5633 -0.5369,17.9633 0.7631,19.1633 C2.3631,20.5633 4.8631,19.6633 6.4631,18.8633 C6.8631,18.6633 7.1631,18.4633 7.5631,18.2633 C8.3631,18.4633 9.1631,18.6633 10.0631,18.6633 C14.8641,18.6633 18.7631,14.7633 18.7631,9.9633 C18.7631,9.0633 18.6631,8.2633 18.3641,7.4633 C18.5631,7.0633 18.7631,6.7633 18.9631,6.3633 C20.5631,3.0633 19.9631,1.4633 19.1631,0.7633" id="Fill-1" fill="#000000" mask="url(#mask-2)"></path>
                </g>
            </g>
        </g>
    </g>
</svg>